<svg xmlns="http://www.w3.org/2000/svg" xmlns:xlink="http://www.w3.org/1999/xlink" width="250" zoomAndPan="magnify" viewBox="0 0 187.5 187.499992" height="250" preserveAspectRatio="xMidYMid meet" version="1.0"><defs><clipPath id="3757f32929"><path d="M 0.875 183.539062 L 4.585938 183.539062 L 4.585938 187 L 0.875 187 Z M 0.875 183.539062 " clip-rule="nonzero"/></clipPath><clipPath id="7c18828334"><path d="M 3.664062 184.609375 C 3.890625 189.019531 2.84375 189.097656 2.394531 188.945312 C 2.019531 188.796875 1.644531 188.199219 1.570312 187.824219 C 1.496094 187.375 1.71875 186.777344 2.019531 186.476562 C 2.320312 186.179688 2.992188 185.953125 3.367188 186.027344 C 3.816406 186.179688 4.339844 186.628906 4.488281 187 C 4.636719 187.375 4.5625 188.046875 4.339844 188.421875 C 4.113281 188.796875 3.515625 189.097656 3.066406 189.097656 C 2.542969 189.019531 1.945312 188.570312 1.570312 187.972656 C 1.121094 187.152344 0.597656 184.832031 1.046875 184.160156 C 1.273438 183.710938 2.167969 183.484375 2.617188 183.558594 C 3.066406 183.710938 3.664062 184.609375 3.664062 184.609375 " clip-rule="nonzero"/></clipPath><clipPath id="699677cfe2"><path d="M 0.875 0.539062 L 4.585938 0.539062 L 4.585938 4 L 0.875 4 Z M 0.875 0.539062 " clip-rule="nonzero"/></clipPath><clipPath id="04837576a1"><path d="M 3.664062 1.609375 C 3.890625 6.019531 2.84375 6.097656 2.394531 5.945312 C 2.019531 5.796875 1.644531 5.199219 1.570312 4.824219 C 1.496094 4.375 1.71875 3.777344 2.019531 3.476562 C 2.320312 3.179688 2.992188 2.953125 3.367188 3.027344 C 3.816406 3.179688 4.339844 3.628906 4.488281 4 C 4.636719 4.375 4.5625 5.046875 4.339844 5.421875 C 4.113281 5.796875 3.515625 6.097656 3.066406 6.097656 C 2.542969 6.019531 1.945312 5.570312 1.570312 4.972656 C 1.121094 4.152344 0.597656 1.832031 1.046875 1.160156 C 1.273438 0.710938 2.167969 0.484375 2.617188 0.558594 C 3.066406 0.710938 3.664062 1.609375 3.664062 1.609375 " clip-rule="nonzero"/></clipPath><clipPath id="46aca30904"><rect x="0" width="5" y="0" height="4"/></clipPath><clipPath id="5bb4cb3c28"><path d="M 0 5.027344 L 109 5.027344 L 109 182 L 0 182 Z M 0 5.027344 " clip-rule="nonzero"/></clipPath><clipPath id="3dcfed6321"><path d="M 83 5.027344 L 139 5.027344 L 139 59 L 83 59 Z M 83 5.027344 " clip-rule="nonzero"/></clipPath><clipPath id="986712bd8b"><path d="M 146 5.027344 L 154 5.027344 L 154 38 L 146 38 Z M 146 5.027344 " clip-rule="nonzero"/></clipPath></defs><g clip-path="url(#3757f32929)"><g clip-path="url(#7c18828334)"><g transform="matrix(1, 0, 0, 1, 0, 183)"><g clip-path="url(#46aca30904)"><g clip-path="url(#699677cfe2)"><g clip-path="url(#04837576a1)"><rect x="-41.25" width="270" fill="#191818" height="269.999988" y="-224.249998" fill-opacity="1"/></g></g></g></g></g></g><g clip-path="url(#5bb4cb3c28)"><path fill="#ffffff" d="M 105.046875 181.902344 L 14.703125 181.902344 C 13.738281 181.902344 12.78125 181.804688 11.835938 181.617188 C 10.890625 181.425781 9.972656 181.148438 9.078125 180.777344 C 8.1875 180.40625 7.339844 179.953125 6.539062 179.417969 C 5.734375 178.882812 4.992188 178.273438 4.3125 177.589844 C 3.628906 176.90625 3.019531 176.164062 2.484375 175.363281 C 1.945312 174.558594 1.492188 173.710938 1.125 172.820312 C 0.753906 171.929688 0.472656 171.011719 0.285156 170.0625 C 0.0976562 169.117188 0 168.160156 0 167.195312 L 0 20.144531 C 0 19.179688 0.0976562 18.226562 0.285156 17.277344 C 0.476562 16.332031 0.753906 15.414062 1.125 14.523438 C 1.492188 13.628906 1.945312 12.785156 2.484375 11.980469 C 3.019531 11.179688 3.628906 10.4375 4.3125 9.753906 C 4.996094 9.070312 5.738281 8.460938 6.539062 7.925781 C 7.339844 7.390625 8.1875 6.9375 9.078125 6.566406 C 9.972656 6.195312 10.890625 5.917969 11.835938 5.726562 C 12.78125 5.539062 13.738281 5.445312 14.703125 5.441406 L 86.9375 5.441406 C 87.378906 5.441406 87.804688 5.527344 88.214844 5.695312 C 88.625 5.867188 88.984375 6.109375 89.296875 6.421875 C 89.609375 6.734375 89.851562 7.09375 90.019531 7.503906 C 90.191406 7.914062 90.277344 8.339844 90.277344 8.78125 C 90.277344 9.226562 90.191406 9.652344 90.019531 10.058594 C 89.851562 10.46875 89.609375 10.832031 89.296875 11.144531 C 88.984375 11.457031 88.625 11.699219 88.214844 11.867188 C 87.804688 12.035156 87.378906 12.121094 86.9375 12.121094 L 14.703125 12.121094 C 14.175781 12.121094 13.65625 12.175781 13.140625 12.277344 C 12.621094 12.378906 12.121094 12.53125 11.632812 12.734375 C 11.148438 12.9375 10.6875 13.183594 10.246094 13.476562 C 9.808594 13.769531 9.40625 14.101562 9.03125 14.472656 C 8.660156 14.847656 8.328125 15.253906 8.035156 15.691406 C 7.742188 16.128906 7.496094 16.589844 7.292969 17.078125 C 7.089844 17.5625 6.9375 18.0625 6.835938 18.582031 C 6.730469 19.097656 6.679688 19.617188 6.679688 20.144531 L 6.679688 167.195312 C 6.679688 167.722656 6.730469 168.246094 6.835938 168.761719 C 6.9375 169.277344 7.089844 169.78125 7.292969 170.265625 C 7.492188 170.753906 7.742188 171.214844 8.035156 171.652344 C 8.328125 172.089844 8.660156 172.496094 9.03125 172.867188 C 9.402344 173.242188 9.808594 173.574219 10.246094 173.867188 C 10.683594 174.160156 11.148438 174.40625 11.632812 174.609375 C 12.121094 174.8125 12.621094 174.964844 13.140625 175.066406 C 13.65625 175.171875 14.175781 175.222656 14.703125 175.222656 L 105.046875 175.222656 C 105.492188 175.222656 105.917969 175.308594 106.324219 175.476562 C 106.734375 175.648438 107.097656 175.886719 107.410156 176.203125 C 107.722656 176.515625 107.964844 176.875 108.132812 177.285156 C 108.300781 177.695312 108.386719 178.121094 108.386719 178.5625 C 108.386719 179.003906 108.300781 179.429688 108.132812 179.839844 C 107.964844 180.25 107.722656 180.609375 107.410156 180.921875 C 107.097656 181.238281 106.734375 181.476562 106.324219 181.648438 C 105.917969 181.816406 105.492188 181.902344 105.046875 181.902344 Z M 105.046875 181.902344 " fill-opacity="1" fill-rule="nonzero"/></g><path fill="#ffffff" d="M 134.78125 85.878906 C 134.339844 85.878906 133.914062 85.792969 133.503906 85.625 C 133.09375 85.453125 132.734375 85.214844 132.421875 84.902344 C 132.109375 84.585938 131.867188 84.226562 131.695312 83.816406 C 131.527344 83.40625 131.441406 82.980469 131.441406 82.539062 L 131.441406 55.28125 C 131.441406 54.835938 131.527344 54.410156 131.695312 54.003906 C 131.867188 53.59375 132.109375 53.230469 132.421875 52.917969 C 132.734375 52.605469 133.09375 52.363281 133.503906 52.195312 C 133.914062 52.027344 134.339844 51.941406 134.78125 51.941406 C 135.226562 51.941406 135.652344 52.027344 136.058594 52.195312 C 136.46875 52.363281 136.832031 52.605469 137.144531 52.917969 C 137.457031 53.230469 137.699219 53.59375 137.867188 54.003906 C 138.035156 54.410156 138.121094 54.835938 138.121094 55.28125 L 138.121094 82.539062 C 138.121094 82.980469 138.035156 83.40625 137.867188 83.816406 C 137.699219 84.226562 137.457031 84.585938 137.144531 84.902344 C 136.832031 85.214844 136.46875 85.453125 136.058594 85.625 C 135.652344 85.792969 135.226562 85.878906 134.78125 85.878906 Z M 134.78125 85.878906 " fill-opacity="1" fill-rule="nonzero"/><g clip-path="url(#3dcfed6321)"><path fill="#ffffff" d="M 134.773438 58.617188 L 98.804688 58.617188 C 97.808594 58.617188 96.816406 58.515625 95.835938 58.320312 C 94.855469 58.125 93.902344 57.835938 92.980469 57.453125 C 92.058594 57.070312 91.179688 56.601562 90.347656 56.046875 C 89.519531 55.488281 88.75 54.859375 88.042969 54.152344 C 87.335938 53.445312 86.703125 52.675781 86.148438 51.847656 C 85.589844 51.015625 85.121094 50.136719 84.738281 49.214844 C 84.355469 48.289062 84.066406 47.339844 83.871094 46.359375 C 83.675781 45.378906 83.574219 44.386719 83.574219 43.390625 L 83.574219 8.773438 C 83.574219 8.101562 83.757812 7.484375 84.128906 6.925781 C 84.5 6.367188 84.996094 5.957031 85.613281 5.695312 C 86.230469 5.433594 86.871094 5.367188 87.53125 5.488281 C 88.191406 5.613281 88.761719 5.910156 89.242188 6.378906 L 137.105469 52.882812 C 137.589844 53.355469 137.90625 53.925781 138.046875 54.589844 C 138.183594 55.253906 138.128906 55.902344 137.871094 56.535156 C 137.617188 57.164062 137.207031 57.667969 136.640625 58.046875 C 136.078125 58.425781 135.457031 58.617188 134.777344 58.617188 Z M 90.253906 16.671875 L 90.253906 43.386719 C 90.253906 43.949219 90.308594 44.503906 90.417969 45.054688 C 90.527344 45.605469 90.691406 46.140625 90.90625 46.65625 C 91.121094 47.175781 91.386719 47.667969 91.699219 48.136719 C 92.011719 48.601562 92.363281 49.035156 92.761719 49.429688 C 93.160156 49.828125 93.589844 50.179688 94.058594 50.492188 C 94.523438 50.804688 95.015625 51.066406 95.535156 51.28125 C 96.054688 51.5 96.589844 51.660156 97.140625 51.769531 C 97.6875 51.878906 98.246094 51.933594 98.804688 51.9375 L 126.546875 51.9375 Z M 90.253906 16.671875 " fill-opacity="1" fill-rule="nonzero"/></g><path fill="#ffffff" d="M 134.785156 181.886719 C 134.445312 181.886719 134.113281 181.835938 133.789062 181.734375 C 106.617188 173.226562 94.109375 152.507812 95.558594 118.386719 C 95.585938 117.734375 95.789062 117.140625 96.164062 116.609375 C 96.539062 116.074219 97.027344 115.683594 97.632812 115.4375 C 110.539062 110.519531 122.222656 103.550781 132.683594 94.53125 C 132.980469 94.289062 133.308594 94.105469 133.667969 93.976562 C 134.03125 93.847656 134.402344 93.785156 134.785156 93.785156 C 135.167969 93.785156 135.539062 93.847656 135.902344 93.976562 C 136.261719 94.105469 136.59375 94.289062 136.890625 94.53125 C 147.347656 103.550781 159.03125 110.519531 171.933594 115.441406 C 172.539062 115.6875 173.027344 116.078125 173.40625 116.609375 C 173.78125 117.144531 173.980469 117.738281 174.007812 118.390625 C 175.460938 152.507812 162.957031 173.226562 135.785156 181.734375 C 135.457031 181.835938 135.125 181.886719 134.785156 181.886719 Z M 102.160156 120.792969 C 101.417969 150.167969 111.828125 167.460938 134.785156 175.039062 C 157.742188 167.460938 168.152344 150.167969 167.410156 120.792969 C 155.511719 116.058594 144.636719 109.597656 134.789062 101.410156 C 124.933594 109.597656 114.058594 116.058594 102.160156 120.792969 Z M 102.160156 120.792969 " fill-opacity="1" fill-rule="nonzero"/><path fill="#ffffff" d="M 144.984375 160.011719 L 124.582031 160.011719 C 124.023438 160.011719 123.472656 159.953125 122.925781 159.84375 C 122.375 159.734375 121.84375 159.574219 121.328125 159.359375 C 120.8125 159.148438 120.324219 158.882812 119.859375 158.574219 C 119.394531 158.265625 118.964844 157.910156 118.570312 157.515625 C 118.175781 157.121094 117.824219 156.691406 117.511719 156.226562 C 117.203125 155.765625 116.941406 155.273438 116.726562 154.757812 C 116.511719 154.242188 116.351562 153.710938 116.242188 153.164062 C 116.132812 152.617188 116.078125 152.0625 116.078125 151.503906 L 116.078125 137.117188 C 116.078125 136.558594 116.132812 136.007812 116.242188 135.460938 C 116.351562 134.910156 116.511719 134.378906 116.726562 133.863281 C 116.941406 133.347656 117.203125 132.859375 117.511719 132.394531 C 117.824219 131.929688 118.175781 131.5 118.570312 131.105469 C 118.964844 130.710938 119.394531 130.359375 119.859375 130.046875 C 120.324219 129.738281 120.8125 129.476562 121.328125 129.261719 C 121.84375 129.046875 122.375 128.886719 122.921875 128.777344 C 123.46875 128.667969 124.023438 128.613281 124.582031 128.613281 L 144.984375 128.613281 C 145.542969 128.613281 146.097656 128.667969 146.644531 128.777344 C 147.191406 128.886719 147.722656 129.046875 148.238281 129.261719 C 148.753906 129.476562 149.246094 129.738281 149.710938 130.046875 C 150.171875 130.359375 150.601562 130.710938 151 131.105469 C 151.394531 131.5 151.746094 131.929688 152.054688 132.394531 C 152.367188 132.859375 152.628906 133.347656 152.84375 133.863281 C 153.054688 134.378906 153.21875 134.910156 153.328125 135.457031 C 153.4375 136.007812 153.492188 136.558594 153.492188 137.117188 L 153.492188 151.503906 C 153.492188 152.0625 153.4375 152.617188 153.328125 153.164062 C 153.21875 153.710938 153.054688 154.242188 152.84375 154.757812 C 152.628906 155.273438 152.367188 155.765625 152.054688 156.226562 C 151.746094 156.691406 151.394531 157.121094 151 157.515625 C 150.605469 157.910156 150.175781 158.265625 149.710938 158.574219 C 149.246094 158.882812 148.753906 159.148438 148.238281 159.359375 C 147.722656 159.574219 147.191406 159.734375 146.644531 159.84375 C 146.097656 159.953125 145.542969 160.011719 144.984375 160.011719 Z M 124.582031 135.289062 C 124.339844 135.289062 124.109375 135.335938 123.882812 135.429688 C 123.660156 135.523438 123.464844 135.65625 123.292969 135.828125 C 123.121094 135.996094 122.988281 136.195312 122.894531 136.417969 C 122.804688 136.640625 122.757812 136.875 122.757812 137.117188 L 122.757812 151.503906 C 122.757812 151.746094 122.804688 151.980469 122.894531 152.203125 C 122.988281 152.425781 123.121094 152.625 123.292969 152.796875 C 123.464844 152.964844 123.660156 153.097656 123.882812 153.191406 C 124.109375 153.285156 124.339844 153.332031 124.582031 153.332031 L 144.984375 153.332031 C 145.226562 153.332031 145.460938 153.285156 145.683594 153.191406 C 145.910156 153.097656 146.105469 152.96875 146.277344 152.796875 C 146.449219 152.625 146.582031 152.425781 146.675781 152.203125 C 146.769531 151.980469 146.816406 151.746094 146.816406 151.503906 L 146.816406 137.117188 C 146.816406 136.875 146.769531 136.640625 146.675781 136.417969 C 146.582031 136.195312 146.449219 135.996094 146.277344 135.824219 C 146.105469 135.65625 145.910156 135.523438 145.683594 135.429688 C 145.460938 135.335938 145.226562 135.289062 144.984375 135.289062 Z M 124.582031 135.289062 " fill-opacity="1" fill-rule="nonzero"/><path fill="#ffffff" d="M 143.742188 135.289062 C 143.300781 135.289062 142.875 135.207031 142.464844 135.035156 C 142.054688 134.867188 141.695312 134.625 141.382812 134.3125 C 141.070312 134 140.828125 133.636719 140.660156 133.230469 C 140.488281 132.820312 140.402344 132.394531 140.402344 131.949219 C 140.402344 119.339844 129.164062 119.328125 129.164062 131.949219 C 129.164062 132.394531 129.078125 132.820312 128.910156 133.230469 C 128.738281 133.636719 128.5 134 128.183594 134.3125 C 127.871094 134.625 127.511719 134.867188 127.101562 135.035156 C 126.691406 135.207031 126.265625 135.289062 125.824219 135.289062 C 125.382812 135.289062 124.957031 135.207031 124.546875 135.035156 C 124.136719 134.867188 123.777344 134.625 123.464844 134.3125 C 123.148438 134 122.910156 133.636719 122.738281 133.230469 C 122.570312 132.820312 122.484375 132.394531 122.484375 131.949219 C 122.484375 121.257812 128.671875 115.664062 134.78125 115.664062 C 140.894531 115.664062 147.082031 121.257812 147.082031 131.949219 C 147.082031 132.394531 147 132.820312 146.828125 133.230469 C 146.660156 133.636719 146.417969 134 146.105469 134.3125 C 145.792969 134.625 145.429688 134.867188 145.019531 135.035156 C 144.613281 135.207031 144.1875 135.289062 143.742188 135.289062 Z M 143.742188 135.289062 " fill-opacity="1" fill-rule="nonzero"/><path fill="#ffffff" d="M 134.78125 149.253906 C 134.339844 149.253906 133.914062 149.171875 133.503906 149 C 133.09375 148.832031 132.734375 148.589844 132.421875 148.277344 C 132.109375 147.964844 131.867188 147.601562 131.695312 147.195312 C 131.527344 146.785156 131.441406 146.359375 131.441406 145.917969 L 131.441406 142.707031 C 131.441406 142.265625 131.527344 141.839844 131.695312 141.429688 C 131.867188 141.019531 132.109375 140.660156 132.421875 140.347656 C 132.734375 140.03125 133.09375 139.792969 133.503906 139.621094 C 133.914062 139.453125 134.339844 139.367188 134.78125 139.367188 C 135.226562 139.367188 135.652344 139.453125 136.058594 139.621094 C 136.46875 139.792969 136.832031 140.03125 137.144531 140.347656 C 137.457031 140.660156 137.699219 141.019531 137.867188 141.429688 C 138.035156 141.839844 138.121094 142.265625 138.121094 142.707031 L 138.121094 145.917969 C 138.121094 146.359375 138.035156 146.785156 137.867188 147.195312 C 137.699219 147.601562 137.457031 147.964844 137.144531 148.277344 C 136.832031 148.589844 136.46875 148.832031 136.058594 149 C 135.652344 149.171875 135.226562 149.253906 134.78125 149.253906 Z M 134.78125 149.253906 " fill-opacity="1" fill-rule="nonzero"/><path fill="#ffffff" d="M 23.917969 66.738281 C 23.472656 66.738281 23.046875 66.65625 22.636719 66.484375 C 22.230469 66.316406 21.867188 66.074219 21.554688 65.761719 C 21.242188 65.449219 21 65.085938 20.832031 64.679688 C 20.660156 64.269531 20.578125 63.84375 20.578125 63.398438 L 20.578125 34.527344 C 20.578125 34.082031 20.660156 33.65625 20.832031 33.246094 C 21 32.839844 21.242188 32.476562 21.554688 32.164062 C 21.867188 31.851562 22.230469 31.609375 22.636719 31.441406 C 23.046875 31.269531 23.472656 31.1875 23.917969 31.1875 C 24.359375 31.1875 24.785156 31.269531 25.195312 31.441406 C 25.601562 31.609375 25.964844 31.851562 26.277344 32.164062 C 26.589844 32.476562 26.832031 32.839844 27 33.246094 C 27.171875 33.65625 27.253906 34.082031 27.253906 34.527344 L 27.253906 63.398438 C 27.253906 63.84375 27.171875 64.269531 27 64.679688 C 26.832031 65.085938 26.589844 65.449219 26.277344 65.761719 C 25.964844 66.074219 25.601562 66.316406 25.195312 66.484375 C 24.785156 66.65625 24.359375 66.738281 23.917969 66.738281 Z M 23.917969 66.738281 " fill-opacity="1" fill-rule="nonzero"/><path fill="#ffffff" d="M 53.597656 66.738281 C 52.738281 66.738281 51.890625 66.652344 51.050781 66.484375 C 50.210938 66.316406 49.394531 66.070312 48.601562 65.742188 C 47.8125 65.414062 47.058594 65.011719 46.347656 64.535156 C 45.632812 64.058594 44.976562 63.519531 44.371094 62.910156 C 43.765625 62.304688 43.222656 61.648438 42.746094 60.933594 C 42.269531 60.222656 41.867188 59.46875 41.539062 58.679688 C 41.210938 57.886719 40.964844 57.070312 40.796875 56.230469 C 40.628906 55.390625 40.542969 54.542969 40.542969 53.6875 L 40.542969 43.347656 C 40.542969 42.492188 40.625 41.640625 40.792969 40.800781 C 40.960938 39.960938 41.207031 39.144531 41.535156 38.351562 C 41.863281 37.5625 42.265625 36.808594 42.742188 36.097656 C 43.21875 35.382812 43.757812 34.726562 44.363281 34.117188 C 44.972656 33.511719 45.628906 32.972656 46.34375 32.496094 C 47.054688 32.019531 47.808594 31.617188 48.597656 31.289062 C 49.390625 30.960938 50.207031 30.714844 51.046875 30.546875 C 51.886719 30.378906 52.738281 30.296875 53.59375 30.296875 C 54.453125 30.296875 55.300781 30.378906 56.140625 30.546875 C 56.980469 30.714844 57.796875 30.960938 58.589844 31.289062 C 59.382812 31.617188 60.132812 32.019531 60.847656 32.496094 C 61.558594 32.972656 62.21875 33.511719 62.824219 34.117188 C 63.429688 34.726562 63.972656 35.382812 64.445312 36.097656 C 64.921875 36.808594 65.324219 37.5625 65.652344 38.351562 C 65.980469 39.144531 66.230469 39.960938 66.394531 40.800781 C 66.5625 41.640625 66.648438 42.492188 66.648438 43.347656 L 66.648438 53.6875 C 66.644531 54.542969 66.5625 55.390625 66.394531 56.230469 C 66.226562 57.070312 65.976562 57.886719 65.648438 58.679688 C 65.320312 59.46875 64.917969 60.222656 64.445312 60.933594 C 63.96875 61.648438 63.425781 62.304688 62.820312 62.910156 C 62.214844 63.515625 61.554688 64.058594 60.84375 64.535156 C 60.132812 65.011719 59.378906 65.414062 58.589844 65.742188 C 57.796875 66.070312 56.980469 66.316406 56.140625 66.484375 C 55.300781 66.652344 54.453125 66.738281 53.597656 66.738281 Z M 53.597656 36.972656 C 53.175781 36.972656 52.761719 37.015625 52.351562 37.097656 C 51.941406 37.179688 51.542969 37.300781 51.15625 37.460938 C 50.769531 37.621094 50.402344 37.816406 50.054688 38.050781 C 49.707031 38.28125 49.386719 38.546875 49.089844 38.84375 C 48.792969 39.136719 48.53125 39.460938 48.296875 39.808594 C 48.066406 40.15625 47.867188 40.523438 47.707031 40.910156 C 47.546875 41.296875 47.425781 41.695312 47.34375 42.105469 C 47.261719 42.515625 47.222656 42.929688 47.21875 43.347656 L 47.21875 53.6875 C 47.21875 54.105469 47.261719 54.519531 47.34375 54.929688 C 47.425781 55.339844 47.546875 55.738281 47.707031 56.125 C 47.867188 56.511719 48.0625 56.878906 48.292969 57.226562 C 48.527344 57.574219 48.792969 57.898438 49.085938 58.191406 C 49.382812 58.488281 49.707031 58.753906 50.054688 58.984375 C 50.402344 59.21875 50.769531 59.414062 51.15625 59.574219 C 51.542969 59.734375 51.941406 59.855469 52.351562 59.9375 C 52.761719 60.019531 53.175781 60.058594 53.59375 60.058594 C 54.011719 60.058594 54.425781 60.019531 54.835938 59.9375 C 55.25 59.855469 55.648438 59.734375 56.035156 59.574219 C 56.421875 59.414062 56.789062 59.21875 57.136719 58.984375 C 57.484375 58.753906 57.804688 58.488281 58.101562 58.191406 C 58.398438 57.898438 58.660156 57.574219 58.894531 57.226562 C 59.125 56.878906 59.324219 56.511719 59.484375 56.125 C 59.644531 55.738281 59.765625 55.339844 59.84375 54.929688 C 59.925781 54.519531 59.96875 54.105469 59.96875 53.6875 L 59.96875 43.347656 C 59.96875 42.929688 59.925781 42.515625 59.84375 42.105469 C 59.761719 41.695312 59.640625 41.296875 59.480469 40.910156 C 59.320312 40.523438 59.125 40.15625 58.890625 39.808594 C 58.660156 39.460938 58.394531 39.140625 58.101562 38.84375 C 57.804688 38.546875 57.484375 38.28125 57.136719 38.050781 C 56.785156 37.816406 56.421875 37.621094 56.035156 37.460938 C 55.648438 37.300781 55.25 37.179688 54.839844 37.097656 C 54.429688 37.015625 54.015625 36.972656 53.597656 36.972656 Z M 53.597656 36.972656 " fill-opacity="1" fill-rule="nonzero"/><path fill="#ffffff" d="M 23.917969 162.535156 C 23.472656 162.535156 23.046875 162.449219 22.636719 162.28125 C 22.230469 162.109375 21.867188 161.871094 21.554688 161.554688 C 21.242188 161.242188 21 160.882812 20.832031 160.472656 C 20.660156 160.0625 20.578125 159.636719 20.578125 159.195312 L 20.578125 130.320312 C 20.578125 129.875 20.660156 129.449219 20.832031 129.039062 C 21 128.632812 21.242188 128.269531 21.554688 127.957031 C 21.867188 127.644531 22.230469 127.402344 22.636719 127.234375 C 23.046875 127.0625 23.472656 126.980469 23.917969 126.980469 C 24.359375 126.980469 24.785156 127.0625 25.195312 127.234375 C 25.601562 127.402344 25.964844 127.644531 26.277344 127.957031 C 26.589844 128.269531 26.832031 128.632812 27 129.039062 C 27.171875 129.449219 27.253906 129.875 27.253906 130.320312 L 27.253906 159.195312 C 27.253906 159.636719 27.171875 160.0625 27 160.472656 C 26.832031 160.882812 26.589844 161.242188 26.277344 161.554688 C 25.964844 161.871094 25.601562 162.109375 25.195312 162.28125 C 24.785156 162.449219 24.359375 162.535156 23.917969 162.535156 Z M 23.917969 162.535156 " fill-opacity="1" fill-rule="nonzero"/><path fill="#ffffff" d="M 53.597656 162.535156 C 52.738281 162.535156 51.890625 162.449219 51.050781 162.28125 C 50.210938 162.113281 49.394531 161.863281 48.601562 161.535156 C 47.8125 161.207031 47.058594 160.804688 46.347656 160.328125 C 45.632812 159.855469 44.976562 159.3125 44.371094 158.707031 C 43.765625 158.101562 43.222656 157.441406 42.746094 156.730469 C 42.269531 156.015625 41.867188 155.265625 41.539062 154.472656 C 41.210938 153.683594 40.964844 152.867188 40.796875 152.027344 C 40.628906 151.1875 40.542969 150.335938 40.542969 149.480469 L 40.542969 139.144531 C 40.542969 138.285156 40.625 137.4375 40.792969 136.597656 C 40.960938 135.757812 41.207031 134.941406 41.535156 134.148438 C 41.863281 133.355469 42.265625 132.605469 42.742188 131.890625 C 43.21875 131.179688 43.757812 130.519531 44.363281 129.914062 C 44.972656 129.308594 45.628906 128.765625 46.34375 128.289062 C 47.054688 127.8125 47.808594 127.414062 48.597656 127.085938 C 49.390625 126.757812 50.207031 126.507812 51.046875 126.339844 C 51.886719 126.175781 52.738281 126.089844 53.59375 126.089844 C 54.453125 126.089844 55.300781 126.175781 56.140625 126.339844 C 56.980469 126.507812 57.796875 126.757812 58.589844 127.085938 C 59.382812 127.414062 60.132812 127.8125 60.847656 128.289062 C 61.558594 128.765625 62.21875 129.308594 62.824219 129.914062 C 63.429688 130.519531 63.972656 131.179688 64.445312 131.890625 C 64.921875 132.605469 65.324219 133.355469 65.652344 134.148438 C 65.980469 134.941406 66.230469 135.757812 66.394531 136.597656 C 66.5625 137.4375 66.648438 138.285156 66.648438 139.144531 L 66.648438 149.480469 C 66.644531 150.335938 66.5625 151.1875 66.394531 152.027344 C 66.226562 152.867188 65.976562 153.683594 65.648438 154.472656 C 65.320312 155.265625 64.917969 156.015625 64.445312 156.730469 C 63.96875 157.441406 63.425781 158.101562 62.820312 158.707031 C 62.214844 159.3125 61.554688 159.851562 60.84375 160.328125 C 60.132812 160.804688 59.378906 161.207031 58.589844 161.535156 C 57.796875 161.863281 56.980469 162.113281 56.140625 162.28125 C 55.300781 162.449219 54.453125 162.535156 53.597656 162.535156 Z M 53.597656 132.769531 C 53.175781 132.769531 52.761719 132.808594 52.351562 132.890625 C 51.941406 132.972656 51.542969 133.09375 51.15625 133.253906 C 50.769531 133.414062 50.402344 133.613281 50.054688 133.84375 C 49.707031 134.078125 49.386719 134.339844 49.089844 134.636719 C 48.792969 134.933594 48.53125 135.253906 48.296875 135.601562 C 48.066406 135.949219 47.867188 136.316406 47.707031 136.703125 C 47.546875 137.089844 47.425781 137.488281 47.34375 137.898438 C 47.261719 138.308594 47.222656 138.722656 47.21875 139.144531 L 47.21875 149.480469 C 47.21875 149.898438 47.261719 150.3125 47.34375 150.722656 C 47.425781 151.132812 47.546875 151.53125 47.707031 151.917969 C 47.867188 152.304688 48.0625 152.671875 48.292969 153.023438 C 48.527344 153.371094 48.792969 153.691406 49.085938 153.988281 C 49.382812 154.285156 49.707031 154.546875 50.054688 154.78125 C 50.402344 155.011719 50.769531 155.207031 51.15625 155.367188 C 51.542969 155.527344 51.941406 155.648438 52.351562 155.730469 C 52.761719 155.8125 53.175781 155.855469 53.59375 155.855469 C 54.011719 155.855469 54.425781 155.8125 54.835938 155.730469 C 55.25 155.648438 55.648438 155.527344 56.035156 155.367188 C 56.421875 155.207031 56.789062 155.011719 57.136719 154.78125 C 57.484375 154.546875 57.804688 154.285156 58.101562 153.988281 C 58.398438 153.691406 58.660156 153.371094 58.894531 153.023438 C 59.125 152.671875 59.324219 152.304688 59.484375 151.917969 C 59.644531 151.53125 59.765625 151.132812 59.84375 150.722656 C 59.925781 150.3125 59.96875 149.898438 59.96875 149.480469 L 59.96875 139.144531 C 59.96875 138.726562 59.925781 138.308594 59.84375 137.898438 C 59.761719 137.488281 59.640625 137.089844 59.480469 136.703125 C 59.320312 136.320312 59.125 135.953125 58.890625 135.605469 C 58.660156 135.253906 58.394531 134.933594 58.101562 134.636719 C 57.804688 134.34375 57.484375 134.078125 57.136719 133.84375 C 56.785156 133.613281 56.421875 133.414062 56.035156 133.253906 C 55.648438 133.09375 55.25 132.972656 54.839844 132.890625 C 54.429688 132.808594 54.015625 132.769531 53.597656 132.769531 Z M 53.597656 132.769531 " fill-opacity="1" fill-rule="nonzero"/><path fill="#ffffff" d="M 63.304688 117.605469 C 62.863281 117.605469 62.4375 117.523438 62.027344 117.351562 C 61.621094 117.183594 61.257812 116.941406 60.945312 116.628906 C 60.632812 116.316406 60.390625 115.953125 60.222656 115.546875 C 60.050781 115.136719 59.96875 114.710938 59.96875 114.265625 L 59.96875 85.394531 C 59.96875 84.949219 60.050781 84.523438 60.222656 84.113281 C 60.390625 83.707031 60.632812 83.34375 60.945312 83.03125 C 61.257812 82.71875 61.621094 82.476562 62.027344 82.308594 C 62.4375 82.136719 62.863281 82.054688 63.304688 82.054688 C 63.75 82.054688 64.175781 82.136719 64.585938 82.308594 C 64.992188 82.476562 65.355469 82.71875 65.667969 83.03125 C 65.980469 83.34375 66.222656 83.707031 66.390625 84.113281 C 66.5625 84.523438 66.644531 84.949219 66.644531 85.394531 L 66.644531 114.265625 C 66.644531 114.710938 66.5625 115.136719 66.390625 115.546875 C 66.222656 115.953125 65.980469 116.316406 65.667969 116.628906 C 65.355469 116.941406 64.992188 117.183594 64.585938 117.351562 C 64.175781 117.523438 63.75 117.605469 63.304688 117.605469 Z M 63.304688 117.605469 " fill-opacity="1" fill-rule="nonzero"/><path fill="#ffffff" d="M 33.632812 117.605469 C 32.773438 117.605469 31.925781 117.519531 31.085938 117.355469 C 30.246094 117.1875 29.429688 116.9375 28.636719 116.609375 C 27.847656 116.28125 27.09375 115.878906 26.382812 115.402344 C 25.671875 114.925781 25.011719 114.386719 24.40625 113.78125 C 23.800781 113.171875 23.257812 112.515625 22.78125 111.800781 C 22.304688 111.089844 21.902344 110.339844 21.574219 109.546875 C 21.246094 108.753906 21 107.941406 20.832031 107.097656 C 20.664062 106.257812 20.578125 105.410156 20.578125 104.554688 L 20.578125 94.214844 C 20.578125 93.359375 20.660156 92.507812 20.828125 91.667969 C 20.992188 90.828125 21.242188 90.011719 21.570312 89.21875 C 21.898438 88.425781 22.296875 87.671875 22.773438 86.960938 C 23.25 86.246094 23.792969 85.585938 24.398438 84.980469 C 25.003906 84.375 25.664062 83.832031 26.375 83.355469 C 27.089844 82.878906 27.84375 82.476562 28.632812 82.148438 C 29.425781 81.820312 30.242188 81.574219 31.082031 81.40625 C 31.925781 81.238281 32.773438 81.15625 33.632812 81.15625 C 34.488281 81.15625 35.335938 81.238281 36.179688 81.40625 C 37.019531 81.574219 37.835938 81.820312 38.628906 82.148438 C 39.421875 82.476562 40.171875 82.878906 40.886719 83.355469 C 41.597656 83.832031 42.257812 84.375 42.863281 84.980469 C 43.46875 85.585938 44.011719 86.246094 44.488281 86.960938 C 44.964844 87.671875 45.367188 88.425781 45.695312 89.21875 C 46.019531 90.011719 46.269531 90.828125 46.433594 91.667969 C 46.601562 92.507812 46.6875 93.359375 46.683594 94.214844 L 46.683594 104.554688 C 46.683594 105.410156 46.601562 106.257812 46.433594 107.097656 C 46.265625 107.941406 46.015625 108.753906 45.6875 109.546875 C 45.359375 110.339844 44.957031 111.089844 44.480469 111.800781 C 44.003906 112.515625 43.464844 113.171875 42.855469 113.78125 C 42.25 114.386719 41.59375 114.925781 40.878906 115.402344 C 40.167969 115.878906 39.414062 116.28125 38.625 116.609375 C 37.832031 116.9375 37.015625 117.1875 36.175781 117.355469 C 35.335938 117.519531 34.488281 117.605469 33.632812 117.605469 Z M 33.632812 87.839844 C 33.210938 87.839844 32.796875 87.882812 32.386719 87.964844 C 31.976562 88.046875 31.578125 88.167969 31.191406 88.328125 C 30.804688 88.488281 30.4375 88.683594 30.089844 88.917969 C 29.742188 89.148438 29.421875 89.414062 29.125 89.710938 C 28.828125 90.003906 28.566406 90.328125 28.332031 90.675781 C 28.101562 91.023438 27.902344 91.390625 27.742188 91.777344 C 27.582031 92.164062 27.460938 92.5625 27.378906 92.972656 C 27.296875 93.382812 27.257812 93.796875 27.253906 94.214844 L 27.253906 104.554688 C 27.253906 104.972656 27.296875 105.386719 27.378906 105.796875 C 27.460938 106.207031 27.582031 106.605469 27.742188 106.992188 C 27.902344 107.378906 28.097656 107.746094 28.332031 108.097656 C 28.5625 108.445312 28.828125 108.765625 29.125 109.0625 C 29.417969 109.359375 29.742188 109.621094 30.089844 109.855469 C 30.4375 110.085938 30.804688 110.285156 31.191406 110.445312 C 31.578125 110.605469 31.976562 110.726562 32.386719 110.808594 C 32.796875 110.886719 33.210938 110.929688 33.632812 110.929688 C 34.050781 110.929688 34.464844 110.886719 34.875 110.808594 C 35.285156 110.726562 35.683594 110.605469 36.070312 110.445312 C 36.457031 110.285156 36.824219 110.085938 37.171875 109.855469 C 37.519531 109.621094 37.84375 109.359375 38.140625 109.0625 C 38.433594 108.765625 38.699219 108.445312 38.933594 108.097656 C 39.164062 107.746094 39.359375 107.378906 39.519531 106.992188 C 39.679688 106.605469 39.800781 106.207031 39.882812 105.796875 C 39.964844 105.386719 40.007812 104.972656 40.007812 104.554688 L 40.007812 94.214844 C 40.007812 93.796875 39.964844 93.382812 39.882812 92.972656 C 39.800781 92.5625 39.679688 92.164062 39.519531 91.777344 C 39.359375 91.390625 39.164062 91.023438 38.929688 90.675781 C 38.699219 90.328125 38.433594 90.003906 38.136719 89.710938 C 37.839844 89.414062 37.519531 89.148438 37.171875 88.917969 C 36.824219 88.683594 36.457031 88.488281 36.070312 88.328125 C 35.683594 88.167969 35.285156 88.046875 34.875 87.964844 C 34.464844 87.882812 34.050781 87.839844 33.632812 87.839844 Z M 33.632812 87.839844 " fill-opacity="1" fill-rule="nonzero"/><path fill="#ffffff" d="M 85.476562 116.195312 C 84.851562 116.199219 84.273438 116.035156 83.738281 115.710938 C 82.78125 115.125 81.914062 114.429688 81.136719 113.621094 C 80.355469 112.816406 79.691406 111.921875 79.140625 110.949219 C 78.589844 109.972656 78.167969 108.941406 77.882812 107.855469 C 77.59375 106.773438 77.445312 105.671875 77.4375 104.550781 L 77.4375 94.199219 C 77.433594 92.46875 77.765625 90.808594 78.425781 89.210938 C 79.089844 87.613281 80.035156 86.207031 81.261719 84.988281 C 82.171875 84.078125 83.195312 83.316406 84.335938 82.707031 C 85.472656 82.101562 86.671875 81.671875 87.9375 81.417969 C 89.203125 81.167969 90.476562 81.101562 91.761719 81.230469 C 93.042969 81.355469 94.28125 81.664062 95.472656 82.15625 C 96.667969 82.648438 97.761719 83.304688 98.757812 84.121094 C 99.757812 84.9375 100.613281 85.882812 101.332031 86.953125 C 102.050781 88.027344 102.597656 89.179688 102.972656 90.414062 C 103.347656 91.644531 103.539062 92.90625 103.539062 94.199219 L 103.539062 102.070312 C 103.539062 102.511719 103.457031 102.9375 103.285156 103.347656 C 103.117188 103.757812 102.875 104.117188 102.5625 104.429688 C 102.25 104.746094 101.886719 104.984375 101.480469 105.15625 C 101.070312 105.324219 100.644531 105.410156 100.199219 105.410156 C 99.757812 105.410156 99.332031 105.324219 98.921875 105.15625 C 98.511719 104.984375 98.152344 104.746094 97.839844 104.429688 C 97.527344 104.117188 97.285156 103.757812 97.117188 103.347656 C 96.945312 102.9375 96.863281 102.511719 96.863281 102.070312 L 96.863281 94.199219 C 96.859375 93.78125 96.820312 93.371094 96.738281 92.960938 C 96.65625 92.550781 96.535156 92.15625 96.375 91.769531 C 96.214844 91.382812 96.019531 91.019531 95.789062 90.671875 C 95.554688 90.324219 95.292969 90.003906 95 89.710938 C 94.703125 89.414062 94.382812 89.152344 94.035156 88.917969 C 93.691406 88.6875 93.324219 88.492188 92.9375 88.332031 C 92.554688 88.171875 92.15625 88.050781 91.746094 87.96875 C 91.339844 87.886719 90.925781 87.847656 90.507812 87.847656 C 89.65625 87.851562 88.835938 88.015625 88.046875 88.34375 C 87.257812 88.667969 86.5625 89.132812 85.957031 89.734375 C 85.363281 90.328125 84.910156 91.011719 84.589844 91.785156 C 84.273438 92.558594 84.113281 93.363281 84.117188 94.199219 L 84.117188 104.550781 C 84.125 105.667969 84.40625 106.710938 84.957031 107.683594 C 85.511719 108.652344 86.265625 109.429688 87.21875 110.007812 C 87.53125 110.195312 87.800781 110.429688 88.035156 110.710938 C 88.269531 110.988281 88.457031 111.296875 88.589844 111.636719 C 88.722656 111.976562 88.796875 112.328125 88.816406 112.691406 C 88.835938 113.054688 88.792969 113.410156 88.695312 113.761719 C 88.597656 114.113281 88.445312 114.441406 88.238281 114.742188 C 88.035156 115.042969 87.785156 115.300781 87.496094 115.523438 C 87.207031 115.742188 86.886719 115.910156 86.542969 116.023438 C 86.195312 116.140625 85.839844 116.199219 85.476562 116.199219 Z M 85.476562 116.195312 " fill-opacity="1" fill-rule="nonzero"/><g clip-path="url(#986712bd8b)"><path fill="#ffffff" d="M 150.15625 37.863281 C 149.710938 37.863281 149.285156 37.78125 148.875 37.609375 C 148.46875 37.441406 148.105469 37.199219 147.792969 36.886719 C 147.480469 36.574219 147.238281 36.210938 147.070312 35.804688 C 146.898438 35.394531 146.816406 34.96875 146.816406 34.527344 L 146.816406 8.78125 C 146.816406 8.339844 146.898438 7.914062 147.070312 7.503906 C 147.238281 7.09375 147.480469 6.734375 147.792969 6.421875 C 148.105469 6.109375 148.46875 5.867188 148.875 5.695312 C 149.285156 5.527344 149.710938 5.441406 150.15625 5.441406 C 150.597656 5.441406 151.023438 5.527344 151.433594 5.695312 C 151.839844 5.867188 152.203125 6.109375 152.515625 6.421875 C 152.828125 6.734375 153.070312 7.09375 153.238281 7.503906 C 153.410156 7.914062 153.492188 8.339844 153.492188 8.78125 L 153.492188 34.527344 C 153.492188 34.96875 153.410156 35.394531 153.238281 35.804688 C 153.070312 36.214844 152.828125 36.574219 152.515625 36.886719 C 152.203125 37.199219 151.839844 37.441406 151.433594 37.609375 C 151.023438 37.78125 150.597656 37.863281 150.15625 37.863281 Z M 150.15625 37.863281 " fill-opacity="1" fill-rule="nonzero"/></g><path fill="#ffffff" d="M 163.023438 24.992188 L 137.277344 24.992188 C 136.835938 24.992188 136.410156 24.910156 136 24.738281 C 135.59375 24.570312 135.230469 24.328125 134.917969 24.015625 C 134.605469 23.703125 134.363281 23.339844 134.195312 22.933594 C 134.023438 22.523438 133.941406 22.097656 133.941406 21.652344 C 133.941406 21.210938 134.023438 20.785156 134.195312 20.375 C 134.363281 19.96875 134.605469 19.605469 134.917969 19.292969 C 135.230469 18.980469 135.59375 18.738281 136 18.570312 C 136.410156 18.398438 136.835938 18.316406 137.277344 18.316406 L 163.023438 18.316406 C 163.46875 18.316406 163.894531 18.398438 164.304688 18.570312 C 164.710938 18.738281 165.074219 18.980469 165.386719 19.292969 C 165.699219 19.605469 165.941406 19.96875 166.109375 20.375 C 166.28125 20.785156 166.363281 21.210938 166.363281 21.652344 C 166.363281 22.097656 166.28125 22.523438 166.109375 22.933594 C 165.941406 23.339844 165.699219 23.703125 165.386719 24.015625 C 165.074219 24.328125 164.710938 24.570312 164.304688 24.738281 C 163.894531 24.910156 163.46875 24.992188 163.023438 24.992188 Z M 163.023438 24.992188 " fill-opacity="1" fill-rule="nonzero"/><path fill="#ffffff" d="M 172.886719 87.847656 C 172.445312 87.847656 172.019531 87.761719 171.609375 87.59375 C 171.199219 87.421875 170.839844 87.179688 170.527344 86.867188 C 170.214844 86.554688 169.972656 86.195312 169.800781 85.785156 C 169.632812 85.375 169.546875 84.949219 169.546875 84.507812 L 169.546875 62.960938 C 169.546875 62.515625 169.632812 62.089844 169.800781 61.683594 C 169.972656 61.273438 170.214844 60.910156 170.527344 60.597656 C 170.839844 60.285156 171.199219 60.042969 171.609375 59.875 C 172.019531 59.707031 172.445312 59.621094 172.886719 59.621094 C 173.332031 59.621094 173.757812 59.707031 174.164062 59.875 C 174.574219 60.042969 174.933594 60.285156 175.25 60.597656 C 175.5625 60.910156 175.804688 61.273438 175.972656 61.683594 C 176.140625 62.089844 176.226562 62.515625 176.226562 62.960938 L 176.226562 84.507812 C 176.226562 84.949219 176.140625 85.375 175.972656 85.785156 C 175.804688 86.195312 175.5625 86.554688 175.25 86.867188 C 174.933594 87.179688 174.574219 87.421875 174.164062 87.59375 C 173.757812 87.761719 173.332031 87.847656 172.886719 87.847656 Z M 172.886719 87.847656 " fill-opacity="1" fill-rule="nonzero"/><path fill="#ffffff" d="M 183.660156 77.070312 L 162.117188 77.070312 C 161.671875 77.070312 161.246094 76.988281 160.839844 76.816406 C 160.429688 76.648438 160.066406 76.40625 159.753906 76.09375 C 159.441406 75.78125 159.199219 75.417969 159.03125 75.011719 C 158.863281 74.601562 158.777344 74.175781 158.777344 73.730469 C 158.777344 73.289062 158.863281 72.863281 159.03125 72.453125 C 159.199219 72.046875 159.441406 71.683594 159.753906 71.371094 C 160.066406 71.058594 160.429688 70.816406 160.839844 70.648438 C 161.246094 70.476562 161.671875 70.394531 162.117188 70.394531 L 183.660156 70.394531 C 184.105469 70.394531 184.53125 70.476562 184.941406 70.648438 C 185.347656 70.816406 185.710938 71.058594 186.023438 71.371094 C 186.335938 71.683594 186.578125 72.046875 186.746094 72.453125 C 186.917969 72.863281 187 73.289062 187 73.730469 C 187 74.175781 186.917969 74.601562 186.746094 75.011719 C 186.578125 75.417969 186.335938 75.78125 186.023438 76.09375 C 185.710938 76.40625 185.347656 76.648438 184.941406 76.816406 C 184.53125 76.988281 184.105469 77.070312 183.660156 77.070312 Z M 183.660156 77.070312 " fill-opacity="1" fill-rule="nonzero"/></svg>