<svg xmlns="http://www.w3.org/2000/svg" xmlns:xlink="http://www.w3.org/1999/xlink" width="250" zoomAndPan="magnify" viewBox="0 0 187.5 187.499992" height="250" preserveAspectRatio="xMidYMid meet" version="1.0"><defs><clipPath id="5e2f6ff844"><path d="M 0.875 183.539062 L 4.585938 183.539062 L 4.585938 187 L 0.875 187 Z M 0.875 183.539062 " clip-rule="nonzero"/></clipPath><clipPath id="d4e6ee6098"><path d="M 3.664062 184.609375 C 3.890625 189.019531 2.84375 189.097656 2.394531 188.945312 C 2.019531 188.796875 1.644531 188.199219 1.570312 187.824219 C 1.496094 187.375 1.71875 186.777344 2.019531 186.476562 C 2.320312 186.179688 2.992188 185.953125 3.367188 186.027344 C 3.816406 186.179688 4.339844 186.628906 4.488281 187 C 4.636719 187.375 4.5625 188.046875 4.339844 188.421875 C 4.113281 188.796875 3.515625 189.097656 3.066406 189.097656 C 2.542969 189.019531 1.945312 188.570312 1.570312 187.972656 C 1.121094 187.152344 0.597656 184.832031 1.046875 184.160156 C 1.273438 183.710938 2.167969 183.484375 2.617188 183.558594 C 3.066406 183.710938 3.664062 184.609375 3.664062 184.609375 " clip-rule="nonzero"/></clipPath><clipPath id="19ae85b24d"><path d="M 0.875 0.539062 L 4.585938 0.539062 L 4.585938 4 L 0.875 4 Z M 0.875 0.539062 " clip-rule="nonzero"/></clipPath><clipPath id="6836f4d82a"><path d="M 3.664062 1.609375 C 3.890625 6.019531 2.84375 6.097656 2.394531 5.945312 C 2.019531 5.796875 1.644531 5.199219 1.570312 4.824219 C 1.496094 4.375 1.71875 3.777344 2.019531 3.476562 C 2.320312 3.179688 2.992188 2.953125 3.367188 3.027344 C 3.816406 3.179688 4.339844 3.628906 4.488281 4 C 4.636719 4.375 4.5625 5.046875 4.339844 5.421875 C 4.113281 5.796875 3.515625 6.097656 3.066406 6.097656 C 2.542969 6.019531 1.945312 5.570312 1.570312 4.972656 C 1.121094 4.152344 0.597656 1.832031 1.046875 1.160156 C 1.273438 0.710938 2.167969 0.484375 2.617188 0.558594 C 3.066406 0.710938 3.664062 1.609375 3.664062 1.609375 " clip-rule="nonzero"/></clipPath><clipPath id="04c1a9d017"><rect x="0" width="5" y="0" height="4"/></clipPath><clipPath id="1a86323626"><path d="M 0 2.21875 L 187 2.21875 L 187 184.734375 L 0 184.734375 Z M 0 2.21875 " clip-rule="nonzero"/></clipPath></defs><g clip-path="url(#5e2f6ff844)"><g clip-path="url(#d4e6ee6098)"><g transform="matrix(1, 0, 0, 1, 0, 183)"><g clip-path="url(#04c1a9d017)"><g clip-path="url(#19ae85b24d)"><g clip-path="url(#6836f4d82a)"><rect x="-41.25" width="270" fill="#191818" height="269.999988" y="-224.249998" fill-opacity="1"/></g></g></g></g></g></g><g clip-path="url(#1a86323626)"><path fill="#ffffff" d="M 74.402344 181.988281 C 72.058594 181.421875 70.613281 179.0625 71.1875 176.71875 C 71.75 174.371094 74.113281 172.929688 76.457031 173.5 C 79.550781 174.25 82.777344 174.832031 86.117188 175.226562 C 89.316406 175.605469 92.601562 175.808594 95.960938 175.808594 C 118.695312 175.808594 139.28125 166.589844 154.183594 151.691406 C 169.085938 136.789062 178.292969 116.210938 178.292969 93.464844 C 178.292969 70.730469 169.078125 50.144531 154.183594 35.242188 C 139.28125 20.339844 118.695312 11.121094 95.960938 11.121094 C 73.222656 11.121094 52.636719 20.339844 37.734375 35.242188 C 22.832031 50.144531 13.625 70.730469 13.625 93.464844 C 13.625 93.589844 13.617188 93.710938 13.605469 93.835938 L 13.617188 94.832031 C 13.652344 97.246094 11.710938 99.21875 9.304688 99.246094 C 6.890625 99.273438 4.917969 97.34375 4.890625 94.9375 L 4.882812 93.878906 C 4.863281 93.746094 4.863281 93.605469 4.863281 93.472656 C 4.863281 68.316406 15.0625 45.542969 31.546875 29.054688 C 48.035156 12.566406 70.816406 2.371094 95.96875 2.371094 C 121.117188 2.371094 143.898438 12.566406 160.386719 29.054688 C 176.875 45.542969 187.070312 68.316406 187.070312 93.472656 C 187.070312 118.632812 176.875 141.40625 160.386719 157.894531 C 143.898438 174.382812 121.117188 184.578125 95.96875 184.578125 C 92.3125 184.578125 88.679688 184.359375 85.09375 183.933594 C 81.515625 183.511719 77.957031 182.859375 74.414062 181.996094 Z M 21.476562 179.996094 C 19.050781 179.996094 17.085938 178.03125 17.085938 175.605469 C 17.085938 173.191406 19.050781 171.226562 21.476562 171.226562 L 55.546875 171.226562 C 57.960938 171.226562 59.925781 173.191406 59.925781 175.605469 C 59.925781 178.03125 57.960938 179.996094 55.546875 179.996094 Z M 12.953125 151.890625 C 10.53125 151.890625 8.566406 149.925781 8.566406 147.511719 C 8.566406 145.089844 10.53125 143.125 12.953125 143.125 L 47.023438 143.125 C 49.4375 143.125 51.402344 145.089844 51.402344 147.511719 C 51.402344 149.925781 49.4375 151.890625 47.023438 151.890625 Z M 4.433594 123.789062 C 2.007812 123.789062 0.0429688 121.824219 0.0429688 119.410156 C 0.0429688 116.984375 2.007812 115.019531 4.433594 115.019531 L 38.5 115.019531 C 40.917969 115.019531 42.882812 116.984375 42.882812 119.410156 C 42.882812 121.824219 40.917969 123.789062 38.5 123.789062 Z M 91.5625 47.535156 C 91.5625 45.121094 93.527344 43.15625 95.949219 43.15625 C 98.363281 43.15625 100.332031 45.121094 100.332031 47.535156 L 100.332031 80.253906 C 100.332031 83.683594 101.160156 86.847656 102.71875 89.550781 C 104.296875 92.277344 106.613281 94.59375 109.558594 96.292969 L 133.828125 110.304688 C 135.914062 111.503906 136.636719 114.175781 135.4375 116.261719 C 134.242188 118.351562 131.570312 119.074219 129.480469 117.867188 L 105.210938 103.855469 C 100.886719 101.363281 97.476562 97.960938 95.15625 93.933594 C 92.820312 89.878906 91.570312 85.226562 91.570312 80.253906 L 91.570312 47.535156 Z M 91.5625 47.535156 " fill-opacity="1" fill-rule="nonzero"/></g></svg>