<svg xmlns="http://www.w3.org/2000/svg" xmlns:xlink="http://www.w3.org/1999/xlink" width="250" zoomAndPan="magnify" viewBox="0 0 187.5 187.499992" height="250" preserveAspectRatio="xMidYMid meet" version="1.0"><defs><clipPath id="1789176b5b"><path d="M 0.875 183.539062 L 4.585938 183.539062 L 4.585938 187 L 0.875 187 Z M 0.875 183.539062 " clip-rule="nonzero"/></clipPath><clipPath id="1c97a88fb0"><path d="M 3.664062 184.609375 C 3.890625 189.019531 2.84375 189.097656 2.394531 188.945312 C 2.019531 188.796875 1.644531 188.199219 1.570312 187.824219 C 1.496094 187.375 1.71875 186.777344 2.019531 186.476562 C 2.320312 186.179688 2.992188 185.953125 3.367188 186.027344 C 3.816406 186.179688 4.339844 186.628906 4.488281 187 C 4.636719 187.375 4.5625 188.046875 4.339844 188.421875 C 4.113281 188.796875 3.515625 189.097656 3.066406 189.097656 C 2.542969 189.019531 1.945312 188.570312 1.570312 187.972656 C 1.121094 187.152344 0.597656 184.832031 1.046875 184.160156 C 1.273438 183.710938 2.167969 183.484375 2.617188 183.558594 C 3.066406 183.710938 3.664062 184.609375 3.664062 184.609375 " clip-rule="nonzero"/></clipPath><clipPath id="e4b3a25b6e"><path d="M 0.875 0.539062 L 4.585938 0.539062 L 4.585938 4 L 0.875 4 Z M 0.875 0.539062 " clip-rule="nonzero"/></clipPath><clipPath id="b39bb289c2"><path d="M 3.664062 1.609375 C 3.890625 6.019531 2.84375 6.097656 2.394531 5.945312 C 2.019531 5.796875 1.644531 5.199219 1.570312 4.824219 C 1.496094 4.375 1.71875 3.777344 2.019531 3.476562 C 2.320312 3.179688 2.992188 2.953125 3.367188 3.027344 C 3.816406 3.179688 4.339844 3.628906 4.488281 4 C 4.636719 4.375 4.5625 5.046875 4.339844 5.421875 C 4.113281 5.796875 3.515625 6.097656 3.066406 6.097656 C 2.542969 6.019531 1.945312 5.570312 1.570312 4.972656 C 1.121094 4.152344 0.597656 1.832031 1.046875 1.160156 C 1.273438 0.710938 2.167969 0.484375 2.617188 0.558594 C 3.066406 0.710938 3.664062 1.609375 3.664062 1.609375 " clip-rule="nonzero"/></clipPath><clipPath id="0bea4d3950"><rect x="0" width="5" y="0" height="4"/></clipPath></defs><g clip-path="url(#1789176b5b)"><g clip-path="url(#1c97a88fb0)"><g transform="matrix(1, 0, 0, 1, 0, 183)"><g clip-path="url(#0bea4d3950)"><g clip-path="url(#e4b3a25b6e)"><g clip-path="url(#b39bb289c2)"><rect x="-41.25" width="270" fill="#191818" height="269.999988" y="-224.249998" fill-opacity="1"/></g></g></g></g></g></g><path fill="#ffffff" d="M 98.386719 105.277344 C 110.433594 105.089844 125.613281 103.246094 140.074219 97.34375 C 144.042969 95.722656 147.917969 93.898438 151.460938 91.457031 C 154.808594 89.152344 155.707031 86.882812 154.777344 82.976562 C 154.015625 79.769531 153.148438 76.585938 152.332031 73.390625 C 151.972656 71.980469 152.125 71.335938 153.925781 71.78125 C 163.242188 74.070312 172.308594 76.910156 180.042969 82.898438 C 181.378906 83.933594 182.550781 85.136719 183.554688 86.511719 C 186.996094 91.242188 186.902344 96.246094 183.273438 100.84375 C 180.707031 104.089844 177.460938 106.519531 173.953125 108.632812 C 166.191406 113.304688 157.746094 116.320312 149.082031 118.78125 C 146.160156 119.613281 146.144531 119.554688 146.59375 122.527344 C 149.140625 139.46875 131.933594 153.921875 116.246094 147.886719 C 107.089844 144.363281 102.429688 137.242188 101.335938 127.679688 C 101.171875 126.273438 100.855469 125.785156 99.378906 125.832031 C 95.589844 125.945312 91.792969 125.917969 88 125.855469 C 86.609375 125.835938 86.003906 126.074219 85.828125 127.722656 C 84.871094 136.703125 80.421875 143.476562 72.183594 147.3125 C 61.1875 152.4375 48.0625 147.222656 42.605469 135.863281 C 40.359375 131.195312 39.816406 126.316406 40.734375 121.289062 C 40.988281 119.902344 40.597656 119.484375 39.367188 119.125 C 31.132812 116.722656 23.046875 113.910156 15.496094 109.769531 C 11.417969 107.53125 7.535156 105.019531 4.453125 101.457031 C -0.046875 96.257812 0.0351562 90.472656 4.636719 85.351562 C 8.109375 81.492188 12.59375 79.164062 17.21875 77.101562 C 22.417969 74.777344 27.847656 73.105469 33.375 71.734375 C 34.9375 71.347656 35.433594 71.597656 34.960938 73.28125 C 34.054688 76.519531 33.328125 79.808594 32.417969 83.046875 C 31.421875 86.617188 32.761719 89.25 35.609375 91.230469 C 42.085938 95.730469 49.34375 98.542969 56.875 100.636719 C 68.410156 103.839844 79.417969 105.273438 98.386719 105.277344 Z M 98.386719 105.277344 " fill-opacity="1" fill-rule="nonzero"/><path fill="#ffffff" d="M 93.261719 86.917969 C 80.695312 86.828125 68.34375 85.285156 56.398438 81.207031 C 52.539062 79.886719 48.832031 78.207031 45.433594 75.910156 C 44.304688 75.148438 43.4375 74.417969 43.871094 72.707031 C 46.46875 62.515625 48.917969 52.289062 51.84375 42.1875 C 53.609375 36.089844 58.789062 33 65.117188 33.824219 C 70.648438 34.546875 75.632812 36.707031 80.488281 39.269531 C 82.785156 40.476562 85.066406 41.71875 87.3125 43.019531 C 91.472656 45.425781 95.554688 45.65625 99.847656 43.175781 C 104.273438 40.617188 108.695312 38.003906 113.488281 36.144531 C 117.429688 34.613281 121.433594 33.367188 125.765625 33.925781 C 130.738281 34.5625 133.957031 37.265625 135.402344 42.0625 C 137.773438 49.910156 139.644531 57.886719 141.695312 65.820312 C 142.308594 68.195312 142.777344 70.609375 143.480469 72.957031 C 143.832031 74.132812 143.492188 74.710938 142.566406 75.378906 C 137.472656 79.054688 131.710938 81.230469 125.730469 82.839844 C 115.109375 85.703125 104.269531 87.023438 93.261719 86.917969 Z M 93.261719 86.917969 " fill-opacity="1" fill-rule="nonzero"/></svg>