<svg xmlns="http://www.w3.org/2000/svg" xmlns:xlink="http://www.w3.org/1999/xlink" width="250" zoomAndPan="magnify" viewBox="0 0 187.5 187.499992" height="250" preserveAspectRatio="xMidYMid meet" version="1.0"><defs><clipPath id="8633931771"><path d="M 0 5.140625 L 37 5.140625 L 37 42 L 0 42 Z M 0 5.140625 " clip-rule="nonzero"/></clipPath><clipPath id="265b1a5c25"><path d="M 150 5.140625 L 187 5.140625 L 187 42 L 150 42 Z M 150 5.140625 " clip-rule="nonzero"/></clipPath><clipPath id="9c73e98ba0"><path d="M 0 145 L 37 145 L 37 181.671875 L 0 181.671875 Z M 0 145 " clip-rule="nonzero"/></clipPath><clipPath id="6e09a91f65"><path d="M 150 145 L 187 145 L 187 181.671875 L 150 181.671875 Z M 150 145 " clip-rule="nonzero"/></clipPath><clipPath id="77eaa3c808"><path d="M 0.875 183.539062 L 4.585938 183.539062 L 4.585938 187 L 0.875 187 Z M 0.875 183.539062 " clip-rule="nonzero"/></clipPath><clipPath id="8140a691e1"><path d="M 3.664062 184.609375 C 3.890625 189.019531 2.84375 189.097656 2.394531 188.945312 C 2.019531 188.796875 1.644531 188.199219 1.570312 187.824219 C 1.496094 187.375 1.71875 186.777344 2.019531 186.476562 C 2.320312 186.179688 2.992188 185.953125 3.367188 186.027344 C 3.816406 186.179688 4.339844 186.628906 4.488281 187 C 4.636719 187.375 4.5625 188.046875 4.339844 188.421875 C 4.113281 188.796875 3.515625 189.097656 3.066406 189.097656 C 2.542969 189.019531 1.945312 188.570312 1.570312 187.972656 C 1.121094 187.152344 0.597656 184.832031 1.046875 184.160156 C 1.273438 183.710938 2.167969 183.484375 2.617188 183.558594 C 3.066406 183.710938 3.664062 184.609375 3.664062 184.609375 " clip-rule="nonzero"/></clipPath><clipPath id="8235989d05"><path d="M 0.875 0.539062 L 4.585938 0.539062 L 4.585938 4 L 0.875 4 Z M 0.875 0.539062 " clip-rule="nonzero"/></clipPath><clipPath id="1ef1b85679"><path d="M 3.664062 1.609375 C 3.890625 6.019531 2.84375 6.097656 2.394531 5.945312 C 2.019531 5.796875 1.644531 5.199219 1.570312 4.824219 C 1.496094 4.375 1.71875 3.777344 2.019531 3.476562 C 2.320312 3.179688 2.992188 2.953125 3.367188 3.027344 C 3.816406 3.179688 4.339844 3.628906 4.488281 4 C 4.636719 4.375 4.5625 5.046875 4.339844 5.421875 C 4.113281 5.796875 3.515625 6.097656 3.066406 6.097656 C 2.542969 6.019531 1.945312 5.570312 1.570312 4.972656 C 1.121094 4.152344 0.597656 1.832031 1.046875 1.160156 C 1.273438 0.710938 2.167969 0.484375 2.617188 0.558594 C 3.066406 0.710938 3.664062 1.609375 3.664062 1.609375 " clip-rule="nonzero"/></clipPath><clipPath id="dd8fe53d0a"><rect x="0" width="5" y="0" height="4"/></clipPath></defs><path fill="#ffffff" d="M 54.738281 108.203125 C 53.125 108.203125 51.820312 106.894531 51.820312 105.28125 L 51.820312 81 C 51.820312 75.144531 52.964844 69.460938 55.230469 64.109375 C 57.414062 58.941406 60.542969 54.300781 64.527344 50.316406 C 68.511719 46.335938 73.152344 43.207031 78.320312 41.019531 C 83.671875 38.757812 89.351562 37.609375 95.210938 37.609375 C 101.066406 37.609375 106.75 38.757812 112.101562 41.019531 C 117.265625 43.207031 121.90625 46.335938 125.890625 50.320312 C 129.875 54.300781 133.003906 58.941406 135.1875 64.109375 C 137.453125 69.460938 138.601562 75.144531 138.601562 81 L 138.601562 83.699219 C 138.601562 85.3125 137.292969 86.621094 135.679688 86.621094 C 134.066406 86.621094 132.757812 85.3125 132.757812 83.699219 L 132.757812 81 C 132.757812 70.972656 128.851562 61.542969 121.761719 54.449219 C 114.667969 47.359375 105.238281 43.453125 95.210938 43.453125 C 74.503906 43.453125 57.660156 60.296875 57.660156 81 L 57.660156 105.28125 C 57.660156 106.894531 56.351562 108.203125 54.738281 108.203125 Z M 54.738281 108.203125 " fill-opacity="1" fill-rule="nonzero"/><path fill="#ffffff" d="M 119.492188 132.417969 C 119.167969 132.417969 118.839844 132.367188 118.515625 132.253906 C 113.566406 130.503906 108.925781 128.007812 104.714844 124.835938 C 100.554688 121.699219 96.902344 117.960938 93.859375 113.734375 C 87.535156 104.945312 84.195312 94.558594 84.195312 83.699219 L 84.195312 81 C 84.195312 74.925781 89.136719 69.984375 95.210938 69.984375 C 101.28125 69.984375 106.222656 74.925781 106.222656 81 L 106.222656 83.699219 C 106.222656 99.9375 119.4375 113.152344 135.679688 113.152344 C 137.292969 113.152344 138.601562 114.460938 138.601562 116.074219 C 138.601562 117.6875 137.292969 118.996094 135.679688 118.996094 C 126.25 118.996094 117.386719 115.324219 110.71875 108.65625 C 104.054688 101.988281 100.382812 93.125 100.382812 83.699219 L 100.382812 81 C 100.382812 78.148438 98.0625 75.828125 95.210938 75.828125 C 92.355469 75.828125 90.035156 78.148438 90.035156 81 L 90.035156 83.699219 C 90.035156 103.011719 102.265625 120.3125 120.464844 126.742188 C 121.984375 127.28125 122.78125 128.949219 122.246094 130.472656 C 121.820312 131.671875 120.695312 132.417969 119.492188 132.417969 Z M 119.492188 132.417969 " fill-opacity="1" fill-rule="nonzero"/><path fill="#ffffff" d="M 54.738281 124.390625 C 53.125 124.390625 51.820312 123.082031 51.820312 121.46875 C 51.820312 119.855469 53.125 118.546875 54.738281 118.546875 C 62.054688 118.546875 68.007812 112.597656 68.007812 105.28125 L 68.007812 81 C 68.007812 73.734375 70.835938 66.902344 75.972656 61.765625 C 81.113281 56.625 87.941406 53.796875 95.210938 53.796875 C 102.476562 53.796875 109.308594 56.625 114.445312 61.765625 C 119.582031 66.902344 122.414062 73.734375 122.414062 81 L 122.414062 83.699219 C 122.414062 91.011719 128.363281 96.964844 135.679688 96.964844 C 137.292969 96.964844 138.601562 98.273438 138.601562 99.886719 C 138.601562 101.5 137.292969 102.808594 135.679688 102.808594 C 125.140625 102.808594 116.570312 94.234375 116.570312 83.699219 L 116.570312 81 C 116.570312 69.222656 106.988281 59.640625 95.210938 59.640625 C 83.429688 59.640625 73.847656 69.222656 73.847656 81 L 73.847656 105.28125 C 73.847656 115.820312 65.277344 124.390625 54.738281 124.390625 Z M 54.738281 124.390625 " fill-opacity="1" fill-rule="nonzero"/><path fill="#ffffff" d="M 54.738281 140.578125 C 53.125 140.578125 51.820312 139.269531 51.820312 137.65625 C 51.820312 136.042969 53.125 134.734375 54.738281 134.734375 C 65.3125 134.734375 75.136719 128.984375 80.378906 119.726562 C 81.171875 118.324219 82.953125 117.828125 84.359375 118.625 C 85.761719 119.417969 86.257812 121.199219 85.460938 122.605469 C 82.433594 127.957031 78.046875 132.453125 72.773438 135.605469 C 67.332031 138.859375 61.097656 140.578125 54.738281 140.578125 Z M 54.738281 140.578125 " fill-opacity="1" fill-rule="nonzero"/><path fill="#ffffff" d="M 109.949219 145.976562 C 109.5625 145.976562 109.164062 145.898438 108.785156 145.730469 C 103.730469 143.53125 99.027344 140.789062 94.769531 137.558594 C 92.476562 140.394531 89.863281 142.996094 86.972656 145.328125 C 85.714844 146.339844 83.875 146.144531 82.863281 144.886719 C 81.851562 143.628906 82.046875 141.792969 83.304688 140.777344 C 86.59375 138.125 89.476562 135.078125 91.875 131.71875 C 92.347656 131.058594 93.074219 130.621094 93.878906 130.519531 C 94.6875 130.414062 95.5 130.652344 96.125 131.171875 C 100.566406 134.878906 105.609375 137.976562 111.117188 140.375 C 112.597656 141.019531 113.273438 142.742188 112.628906 144.21875 C 112.152344 145.320312 111.078125 145.976562 109.949219 145.976562 Z M 109.949219 145.976562 " fill-opacity="1" fill-rule="nonzero"/><path fill="#ffffff" d="M 93.5 169.894531 C 85.035156 169.894531 76.820312 168.238281 69.085938 164.964844 C 61.613281 161.804688 54.90625 157.285156 49.148438 151.523438 C 43.386719 145.765625 38.863281 139.058594 35.707031 131.585938 C 32.433594 123.851562 30.773438 115.636719 30.773438 107.171875 L 30.773438 79.832031 C 30.773438 71.363281 32.433594 63.148438 35.707031 55.414062 C 38.863281 47.945312 43.386719 41.238281 49.148438 35.476562 C 54.90625 29.71875 61.613281 25.195312 69.082031 22.035156 C 76.820312 18.765625 85.035156 17.105469 93.5 17.105469 C 101.96875 17.105469 110.183594 18.765625 117.917969 22.035156 C 125.386719 25.195312 132.09375 29.71875 137.855469 35.476562 C 143.613281 41.238281 148.136719 47.945312 151.296875 55.414062 C 154.566406 63.148438 156.226562 71.363281 156.226562 79.832031 L 156.226562 107.171875 C 156.226562 115.636719 154.566406 123.851562 151.296875 131.585938 C 148.136719 139.058594 143.613281 145.765625 137.855469 151.523438 C 132.09375 157.285156 125.386719 161.804688 117.917969 164.964844 C 110.183594 168.238281 101.96875 169.894531 93.5 169.894531 Z M 93.5 22.949219 C 62.136719 22.949219 36.617188 48.464844 36.617188 79.832031 L 36.617188 107.171875 C 36.617188 138.535156 62.136719 164.054688 93.5 164.054688 C 124.867188 164.054688 150.382812 138.535156 150.382812 107.171875 L 150.382812 79.832031 C 150.382812 48.464844 124.867188 22.949219 93.5 22.949219 Z M 93.5 22.949219 " fill-opacity="1" fill-rule="nonzero"/><g clip-path="url(#8633931771)"><path fill="#ffffff" d="M 16.609375 41.742188 L 2.9375 41.742188 C 1.324219 41.742188 0.0195312 40.433594 0.0195312 38.820312 L 0.0195312 8.066406 C 0.0195312 6.453125 1.324219 5.144531 2.9375 5.144531 L 33.695312 5.144531 C 35.308594 5.144531 36.617188 6.453125 36.617188 8.066406 L 36.617188 21.734375 C 36.617188 23.347656 35.308594 24.65625 33.695312 24.65625 L 19.53125 24.65625 L 19.53125 38.820312 C 19.53125 40.433594 18.222656 41.742188 16.609375 41.742188 Z M 5.859375 35.902344 L 13.6875 35.902344 L 13.6875 21.734375 C 13.6875 20.121094 14.996094 18.8125 16.609375 18.8125 L 30.773438 18.8125 L 30.773438 10.988281 L 5.859375 10.988281 Z M 5.859375 35.902344 " fill-opacity="1" fill-rule="nonzero"/></g><g clip-path="url(#265b1a5c25)"><path fill="#ffffff" d="M 184.0625 41.742188 L 170.390625 41.742188 C 168.777344 41.742188 167.472656 40.433594 167.472656 38.820312 L 167.472656 24.65625 L 153.304688 24.65625 C 151.691406 24.65625 150.382812 23.347656 150.382812 21.734375 L 150.382812 8.066406 C 150.382812 6.453125 151.691406 5.144531 153.304688 5.144531 L 184.0625 5.144531 C 185.675781 5.144531 186.984375 6.453125 186.984375 8.066406 L 186.984375 38.820312 C 186.984375 40.433594 185.675781 41.742188 184.0625 41.742188 Z M 173.3125 35.902344 L 181.140625 35.902344 L 181.140625 10.988281 L 156.226562 10.988281 L 156.226562 18.8125 L 170.390625 18.8125 C 172.003906 18.8125 173.3125 20.121094 173.3125 21.734375 Z M 173.3125 35.902344 " fill-opacity="1" fill-rule="nonzero"/></g><g clip-path="url(#9c73e98ba0)"><path fill="#ffffff" d="M 33.695312 181.855469 L 2.9375 181.855469 C 1.324219 181.855469 0.0195312 180.550781 0.0195312 178.9375 L 0.0195312 148.179688 C 0.0195312 146.566406 1.324219 145.257812 2.9375 145.257812 L 16.609375 145.257812 C 18.222656 145.257812 19.53125 146.566406 19.53125 148.179688 L 19.53125 162.34375 L 33.695312 162.34375 C 35.308594 162.34375 36.617188 163.652344 36.617188 165.265625 L 36.617188 178.9375 C 36.617188 180.550781 35.308594 181.855469 33.695312 181.855469 Z M 5.859375 176.015625 L 30.773438 176.015625 L 30.773438 168.1875 L 16.609375 168.1875 C 14.996094 168.1875 13.6875 166.878906 13.6875 165.265625 L 13.6875 151.101562 L 5.859375 151.101562 Z M 5.859375 176.015625 " fill-opacity="1" fill-rule="nonzero"/></g><g clip-path="url(#6e09a91f65)"><path fill="#ffffff" d="M 184.0625 181.855469 L 153.304688 181.855469 C 151.691406 181.855469 150.382812 180.550781 150.382812 178.9375 L 150.382812 165.265625 C 150.382812 163.652344 151.691406 162.34375 153.304688 162.34375 L 167.472656 162.34375 L 167.472656 148.179688 C 167.472656 146.566406 168.777344 145.257812 170.390625 145.257812 L 184.0625 145.257812 C 185.675781 145.257812 186.984375 146.566406 186.984375 148.179688 L 186.984375 178.9375 C 186.984375 180.550781 185.675781 181.855469 184.0625 181.855469 Z M 156.226562 176.015625 L 181.140625 176.015625 L 181.140625 151.101562 L 173.3125 151.101562 L 173.3125 165.265625 C 173.3125 166.878906 172.003906 168.1875 170.390625 168.1875 L 156.226562 168.1875 Z M 156.226562 176.015625 " fill-opacity="1" fill-rule="nonzero"/></g><g clip-path="url(#77eaa3c808)"><g clip-path="url(#8140a691e1)"><g transform="matrix(1, 0, 0, 1, 0, 183)"><g clip-path="url(#dd8fe53d0a)"><g clip-path="url(#8235989d05)"><g clip-path="url(#1ef1b85679)"><rect x="-41.25" width="270" fill="#191818" height="269.999988" y="-224.249998" fill-opacity="1"/></g></g></g></g></g></g></svg>