<svg xmlns="http://www.w3.org/2000/svg" xmlns:xlink="http://www.w3.org/1999/xlink" width="250" zoomAndPan="magnify" viewBox="0 0 187.5 187.499992" height="250" preserveAspectRatio="xMidYMid meet" version="1.0"><defs><clipPath id="101aff15a1"><path d="M 0.875 183.539062 L 4.585938 183.539062 L 4.585938 187 L 0.875 187 Z M 0.875 183.539062 " clip-rule="nonzero"/></clipPath><clipPath id="d748eb52e4"><path d="M 3.664062 184.609375 C 3.890625 189.019531 2.84375 189.097656 2.394531 188.945312 C 2.019531 188.796875 1.644531 188.199219 1.570312 187.824219 C 1.496094 187.375 1.71875 186.777344 2.019531 186.476562 C 2.320312 186.179688 2.992188 185.953125 3.367188 186.027344 C 3.816406 186.179688 4.339844 186.628906 4.488281 187 C 4.636719 187.375 4.5625 188.046875 4.339844 188.421875 C 4.113281 188.796875 3.515625 189.097656 3.066406 189.097656 C 2.542969 189.019531 1.945312 188.570312 1.570312 187.972656 C 1.121094 187.152344 0.597656 184.832031 1.046875 184.160156 C 1.273438 183.710938 2.167969 183.484375 2.617188 183.558594 C 3.066406 183.710938 3.664062 184.609375 3.664062 184.609375 " clip-rule="nonzero"/></clipPath><clipPath id="4f4df3fe89"><path d="M 0.875 0.539062 L 4.585938 0.539062 L 4.585938 4 L 0.875 4 Z M 0.875 0.539062 " clip-rule="nonzero"/></clipPath><clipPath id="2c499f3a5b"><path d="M 3.664062 1.609375 C 3.890625 6.019531 2.84375 6.097656 2.394531 5.945312 C 2.019531 5.796875 1.644531 5.199219 1.570312 4.824219 C 1.496094 4.375 1.71875 3.777344 2.019531 3.476562 C 2.320312 3.179688 2.992188 2.953125 3.367188 3.027344 C 3.816406 3.179688 4.339844 3.628906 4.488281 4 C 4.636719 4.375 4.5625 5.046875 4.339844 5.421875 C 4.113281 5.796875 3.515625 6.097656 3.066406 6.097656 C 2.542969 6.019531 1.945312 5.570312 1.570312 4.972656 C 1.121094 4.152344 0.597656 1.832031 1.046875 1.160156 C 1.273438 0.710938 2.167969 0.484375 2.617188 0.558594 C 3.066406 0.710938 3.664062 1.609375 3.664062 1.609375 " clip-rule="nonzero"/></clipPath><clipPath id="32a8a6dbce"><rect x="0" width="5" y="0" height="4"/></clipPath><clipPath id="c9b6e9e7f1"><path d="M 1 5.027344 L 185 5.027344 L 185 121 L 1 121 Z M 1 5.027344 " clip-rule="nonzero"/></clipPath><clipPath id="a5213f6c98"><path d="M 0 96 L 101.730469 96 L 101.730469 186.355469 L 0 186.355469 Z M 0 96 " clip-rule="nonzero"/></clipPath></defs><g clip-path="url(#101aff15a1)"><g clip-path="url(#d748eb52e4)"><g transform="matrix(1, 0, 0, 1, 0, 183)"><g clip-path="url(#32a8a6dbce)"><g clip-path="url(#4f4df3fe89)"><g clip-path="url(#2c499f3a5b)"><rect x="-41.25" width="270" fill="#191818" height="269.999988" y="-224.249998" fill-opacity="1"/></g></g></g></g></g></g><g clip-path="url(#c9b6e9e7f1)"><path fill="#ffffff" d="M 178.5625 70.691406 C 176.730469 68.261719 174.59375 66.144531 172.148438 64.332031 C 169.707031 62.519531 167.058594 61.089844 164.203125 60.042969 C 164.355469 58.476562 164.429688 56.894531 164.429688 55.324219 C 164.429688 27.609375 141.203125 5.0625 112.648438 5.0625 C 107.691406 5.050781 102.824219 5.726562 98.054688 7.089844 C 93.289062 8.453125 88.800781 10.449219 84.59375 13.074219 C 80.847656 15.414062 77.460938 18.1875 74.433594 21.40625 C 71.410156 24.625 68.847656 28.171875 66.746094 32.058594 C 65.402344 31.335938 64.015625 30.714844 62.585938 30.195312 C 61.15625 29.675781 59.691406 29.261719 58.203125 28.953125 C 56.710938 28.644531 55.207031 28.445312 53.683594 28.355469 C 52.164062 28.265625 50.648438 28.285156 49.128906 28.414062 C 47.613281 28.542969 46.113281 28.78125 44.628906 29.128906 C 43.148438 29.476562 41.695312 29.929688 40.28125 30.484375 C 38.863281 31.042969 37.492188 31.699219 36.171875 32.453125 C 34.847656 33.210938 33.589844 34.058594 32.390625 34.996094 C 31.191406 35.933594 30.0625 36.953125 29.011719 38.054688 C 27.960938 39.15625 26.996094 40.328125 26.113281 41.566406 C 25.230469 42.808594 24.441406 44.109375 23.75 45.464844 C 23.054688 46.820312 22.460938 48.21875 21.96875 49.65625 C 21.480469 51.097656 21.09375 52.570312 20.816406 54.066406 C 20.539062 55.5625 20.367188 57.070312 20.308594 58.59375 C 20.25 60.113281 20.296875 61.632812 20.457031 63.148438 C 20.617188 64.660156 20.886719 66.15625 21.265625 67.632812 C 20.5 67.824219 19.75 68.050781 19.007812 68.3125 C 18.265625 68.570312 17.535156 68.867188 16.820312 69.191406 C 16.105469 69.519531 15.40625 69.878906 14.722656 70.265625 C 14.039062 70.65625 13.375 71.078125 12.730469 71.527344 C 12.085938 71.976562 11.460938 72.453125 10.859375 72.960938 C 10.257812 73.46875 9.679688 74 9.128906 74.558594 C 8.574219 75.117188 8.046875 75.699219 7.546875 76.304688 C 7.042969 76.914062 6.570312 77.539062 6.128906 78.191406 C 5.683594 78.839844 5.269531 79.507812 4.886719 80.195312 C 4.503906 80.878906 4.152344 81.582031 3.832031 82.300781 C 3.511719 83.019531 3.222656 83.75 2.96875 84.496094 C 2.714844 85.238281 2.496094 85.996094 2.3125 86.757812 C 2.125 87.523438 1.976562 88.292969 1.859375 89.070312 C 1.742188 89.851562 1.664062 90.632812 1.617188 91.417969 C 1.574219 92.203125 1.5625 92.988281 1.589844 93.773438 C 1.617188 94.558594 1.675781 95.34375 1.773438 96.125 C 1.871094 96.902344 2.003906 97.679688 2.171875 98.445312 C 2.335938 99.214844 2.539062 99.976562 2.773438 100.726562 C 3.011719 101.476562 3.28125 102.214844 3.582031 102.941406 C 3.882812 103.664062 4.21875 104.375 4.585938 105.070312 C 4.953125 105.769531 5.351562 106.445312 5.777344 107.105469 C 6.207031 107.765625 6.664062 108.402344 7.152344 109.023438 C 7.636719 109.640625 8.148438 110.234375 8.691406 110.808594 C 9.230469 111.378906 9.792969 111.925781 10.382812 112.445312 C 10.972656 112.96875 11.585938 113.460938 12.21875 113.925781 C 12.851562 114.390625 13.507812 114.828125 14.179688 115.234375 C 14.855469 115.640625 15.542969 116.015625 16.25 116.359375 C 16.957031 116.703125 17.679688 117.011719 18.414062 117.292969 C 19.152344 117.570312 19.898438 117.816406 20.65625 118.027344 C 21.414062 118.238281 22.179688 118.414062 22.953125 118.554688 C 23.726562 118.695312 24.503906 118.800781 25.289062 118.875 C 26.070312 118.945312 26.855469 118.980469 27.644531 118.980469 L 27.644531 115.1875 C 26.953125 115.1875 26.261719 115.152344 25.574219 115.089844 C 24.886719 115.027344 24.203125 114.929688 23.523438 114.800781 C 22.84375 114.675781 22.171875 114.515625 21.507812 114.324219 C 20.84375 114.132812 20.191406 113.914062 19.546875 113.664062 C 18.902344 113.410156 18.273438 113.132812 17.65625 112.820312 C 17.039062 112.511719 16.4375 112.171875 15.847656 111.808594 C 15.261719 111.441406 14.695312 111.050781 14.144531 110.632812 C 13.597656 110.210938 13.066406 109.769531 12.558594 109.300781 C 12.050781 108.832031 11.566406 108.34375 11.101562 107.828125 C 10.640625 107.316406 10.203125 106.78125 9.789062 106.230469 C 9.375 105.675781 8.988281 105.101562 8.628906 104.511719 C 8.269531 103.921875 7.9375 103.316406 7.632812 102.699219 C 7.328125 102.078125 7.054688 101.441406 6.8125 100.796875 C 6.566406 100.152344 6.351562 99.496094 6.167969 98.828125 C 5.984375 98.164062 5.832031 97.488281 5.710938 96.808594 C 5.589844 96.128906 5.503906 95.445312 5.445312 94.753906 C 5.386719 94.066406 5.363281 93.378906 5.371094 92.6875 C 5.375 91.996094 5.414062 91.304688 5.488281 90.617188 C 5.558594 89.933594 5.660156 89.25 5.796875 88.570312 C 5.929688 87.894531 6.097656 87.222656 6.292969 86.5625 C 6.488281 85.898438 6.71875 85.246094 6.976562 84.605469 C 7.234375 83.964844 7.519531 83.335938 7.835938 82.722656 C 8.152344 82.109375 8.496094 81.511719 8.867188 80.925781 C 9.238281 80.34375 9.636719 79.78125 10.0625 79.234375 C 10.484375 78.691406 10.933594 78.164062 11.40625 77.664062 C 11.878906 77.160156 12.375 76.679688 12.894531 76.21875 C 13.410156 75.761719 13.949219 75.332031 14.507812 74.921875 C 15.066406 74.515625 15.640625 74.132812 16.234375 73.78125 C 16.828125 73.425781 17.4375 73.101562 18.058594 72.804688 C 18.683594 72.507812 19.320312 72.238281 19.96875 72 C 20.617188 71.761719 21.273438 71.554688 21.941406 71.378906 C 22.609375 71.203125 23.285156 71.054688 23.96875 70.941406 L 26.148438 70.582031 L 25.460938 68.480469 C 25.015625 67.132812 24.679688 65.761719 24.449219 64.363281 C 24.214844 62.96875 24.09375 61.558594 24.074219 60.144531 C 24.058594 58.726562 24.152344 57.316406 24.351562 55.914062 C 24.550781 54.511719 24.855469 53.132812 25.265625 51.777344 C 25.675781 50.421875 26.1875 49.105469 26.800781 47.828125 C 27.414062 46.550781 28.121094 45.328125 28.921875 44.15625 C 29.722656 42.988281 30.605469 41.886719 31.574219 40.855469 C 32.542969 39.820312 33.585938 38.867188 34.703125 37.992188 C 35.816406 37.121094 36.992188 36.335938 38.226562 35.640625 C 39.460938 34.949219 40.742188 34.351562 42.070312 33.855469 C 43.394531 33.359375 44.753906 32.964844 46.140625 32.675781 C 47.527344 32.386719 48.925781 32.203125 50.339844 32.128906 C 51.753906 32.054688 53.167969 32.085938 54.578125 32.226562 C 55.988281 32.371094 57.378906 32.617188 58.75 32.972656 C 60.121094 33.328125 61.457031 33.785156 62.757812 34.34375 C 64.058594 34.902344 65.3125 35.558594 66.511719 36.308594 L 68.300781 37.429688 L 69.226562 35.53125 C 77.117188 19.328125 94.160156 8.859375 112.648438 8.859375 C 139.109375 8.859375 160.636719 29.703125 160.636719 55.324219 C 160.636719 57.261719 160.511719 59.191406 160.265625 61.113281 L 160.0625 62.699219 L 161.59375 63.167969 C 162.371094 63.410156 163.140625 63.683594 163.894531 63.992188 C 164.648438 64.296875 165.386719 64.636719 166.113281 65.011719 C 166.835938 65.386719 167.542969 65.789062 168.230469 66.226562 C 168.921875 66.664062 169.589844 67.128906 170.234375 67.625 C 170.882812 68.121094 171.507812 68.644531 172.105469 69.195312 C 172.707031 69.746094 173.28125 70.320312 173.832031 70.925781 C 174.382812 71.527344 174.902344 72.152344 175.398438 72.800781 C 175.890625 73.449219 176.355469 74.117188 176.789062 74.808594 C 177.222656 75.496094 177.625 76.207031 177.996094 76.929688 C 178.367188 77.65625 178.707031 78.398438 179.011719 79.152344 C 179.316406 79.910156 179.589844 80.675781 179.828125 81.457031 C 180.0625 82.234375 180.265625 83.023438 180.433594 83.824219 C 180.601562 84.621094 180.730469 85.425781 180.828125 86.234375 C 180.921875 87.042969 180.980469 87.855469 181.003906 88.667969 C 181.027344 89.484375 181.015625 90.300781 180.96875 91.113281 C 180.917969 91.925781 180.832031 92.734375 180.710938 93.542969 C 180.59375 94.347656 180.433594 95.148438 180.242188 95.941406 C 180.050781 96.730469 179.824219 97.515625 179.5625 98.285156 C 179.300781 99.058594 179.007812 99.816406 178.675781 100.5625 C 178.347656 101.308594 177.988281 102.039062 177.59375 102.75 C 177.199219 103.464844 176.773438 104.160156 176.320312 104.835938 C 175.863281 105.511719 175.378906 106.167969 174.863281 106.800781 C 174.351562 107.433594 173.8125 108.039062 173.242188 108.625 C 172.675781 109.210938 172.082031 109.769531 171.464844 110.300781 C 170.847656 110.832031 170.207031 111.335938 169.542969 111.8125 C 168.882812 112.285156 168.199219 112.730469 167.5 113.144531 C 166.796875 113.558594 166.078125 113.941406 165.34375 114.292969 C 164.605469 114.644531 163.855469 114.960938 163.09375 115.246094 C 162.328125 115.527344 161.554688 115.777344 160.765625 115.992188 C 159.980469 116.207031 159.1875 116.386719 158.382812 116.53125 C 157.582031 116.675781 156.773438 116.785156 155.964844 116.859375 C 155.152344 116.929688 154.335938 116.96875 153.523438 116.96875 L 153.523438 120.761719 C 154.96875 120.761719 156.40625 120.660156 157.839844 120.460938 C 159.273438 120.261719 160.683594 119.964844 162.074219 119.570312 C 163.464844 119.175781 164.824219 118.6875 166.144531 118.101562 C 167.46875 117.519531 168.746094 116.847656 169.976562 116.089844 C 171.207031 115.328125 172.378906 114.488281 173.492188 113.5625 C 174.605469 112.640625 175.648438 111.648438 176.625 110.578125 C 177.597656 109.511719 178.496094 108.382812 179.316406 107.191406 C 180.132812 106 180.867188 104.757812 181.515625 103.464844 C 182.160156 102.171875 182.714844 100.839844 183.175781 99.46875 C 183.640625 98.097656 184.003906 96.703125 184.273438 95.28125 C 184.542969 93.859375 184.710938 92.429688 184.78125 90.984375 C 184.851562 89.539062 184.824219 88.097656 184.691406 86.65625 C 184.5625 85.21875 184.335938 83.792969 184.007812 82.386719 C 183.679688 80.976562 183.257812 79.597656 182.738281 78.246094 C 182.222656 76.898438 181.613281 75.589844 180.914062 74.324219 C 180.214844 73.058594 179.429688 71.847656 178.5625 70.691406 Z M 178.5625 70.691406 " fill-opacity="1" fill-rule="nonzero"/></g><path fill="#ffffff" d="M 99.628906 24.960938 L 97.816406 21.628906 C 92.46875 24.585938 87.964844 28.515625 84.308594 33.414062 L 87.382812 35.640625 C 90.695312 31.199219 94.777344 27.640625 99.628906 24.960938 Z M 99.628906 24.960938 " fill-opacity="1" fill-rule="nonzero"/><path fill="#ffffff" d="M 110.300781 22.070312 L 110.09375 18.28125 C 108.886719 18.347656 107.578125 18.476562 106.207031 18.664062 C 105.285156 18.789062 104.378906 18.984375 103.484375 19.246094 L 104.535156 22.890625 C 105.25 22.683594 105.976562 22.527344 106.714844 22.421875 C 107.984375 22.25 109.191406 22.132812 110.300781 22.070312 Z M 110.300781 22.070312 " fill-opacity="1" fill-rule="nonzero"/><path fill="#ffffff" d="M 131.300781 76.023438 L 48.546875 76.023438 C 47.609375 76.019531 46.683594 76.105469 45.765625 76.285156 C 44.84375 76.460938 43.953125 76.730469 43.085938 77.085938 C 42.21875 77.4375 41.394531 77.875 40.613281 78.394531 C 39.835938 78.910156 39.113281 79.5 38.449219 80.160156 C 37.785156 80.820312 37.191406 81.539062 36.671875 82.316406 C 36.148438 83.09375 35.707031 83.917969 35.347656 84.78125 C 34.988281 85.644531 34.71875 86.539062 34.535156 87.457031 C 34.351562 88.375 34.257812 89.300781 34.257812 90.238281 C 34.257812 91.175781 34.351562 92.101562 34.535156 93.019531 C 34.71875 93.9375 34.988281 94.828125 35.347656 95.695312 C 35.707031 96.558594 36.148438 97.378906 36.671875 98.15625 C 37.191406 98.933594 37.785156 99.652344 38.449219 100.316406 C 39.113281 100.976562 39.835938 101.5625 40.613281 102.082031 C 41.394531 102.597656 42.21875 103.035156 43.085938 103.390625 C 43.953125 103.746094 44.84375 104.011719 45.765625 104.191406 C 46.683594 104.371094 47.609375 104.457031 48.546875 104.453125 L 131.300781 104.453125 C 132.230469 104.445312 133.148438 104.351562 134.0625 104.164062 C 134.972656 103.980469 135.859375 103.707031 136.714844 103.347656 C 137.574219 102.988281 138.390625 102.550781 139.160156 102.03125 C 139.933594 101.511719 140.644531 100.921875 141.300781 100.261719 C 141.957031 99.601562 142.542969 98.886719 143.058594 98.113281 C 143.574219 97.335938 144.011719 96.519531 144.363281 95.660156 C 144.71875 94.800781 144.988281 93.914062 145.167969 93 C 145.347656 92.089844 145.441406 91.167969 145.441406 90.238281 C 145.441406 89.308594 145.347656 88.386719 145.167969 87.472656 C 144.988281 86.5625 144.71875 85.675781 144.363281 84.816406 C 144.011719 83.957031 143.574219 83.136719 143.058594 82.363281 C 142.542969 81.589844 141.957031 80.871094 141.300781 80.210938 C 140.644531 79.554688 139.933594 78.964844 139.160156 78.445312 C 138.390625 77.925781 137.574219 77.484375 136.714844 77.125 C 135.859375 76.765625 134.972656 76.496094 134.0625 76.308594 C 133.148438 76.125 132.230469 76.027344 131.300781 76.023438 Z M 131.300781 100.65625 L 48.546875 100.65625 C 47.859375 100.660156 47.179688 100.597656 46.503906 100.46875 C 45.832031 100.335938 45.175781 100.140625 44.539062 99.882812 C 43.90625 99.621094 43.300781 99.304688 42.726562 98.921875 C 42.15625 98.542969 41.625 98.113281 41.140625 97.628906 C 40.652344 97.144531 40.214844 96.617188 39.832031 96.046875 C 39.449219 95.476562 39.128906 94.875 38.863281 94.238281 C 38.601562 93.605469 38.402344 92.953125 38.265625 92.277344 C 38.132812 91.605469 38.0625 90.925781 38.0625 90.238281 C 38.0625 89.550781 38.132812 88.871094 38.265625 88.195312 C 38.402344 87.523438 38.601562 86.871094 38.863281 86.234375 C 39.128906 85.601562 39.449219 85 39.832031 84.429688 C 40.214844 83.859375 40.652344 83.332031 41.140625 82.847656 C 41.625 82.363281 42.15625 81.929688 42.726562 81.550781 C 43.300781 81.171875 43.90625 80.851562 44.539062 80.59375 C 45.175781 80.332031 45.832031 80.136719 46.503906 80.007812 C 47.179688 79.875 47.859375 79.8125 48.546875 79.816406 L 131.300781 79.816406 C 131.980469 79.820312 132.65625 79.890625 133.324219 80.027344 C 133.992188 80.164062 134.640625 80.367188 135.265625 80.628906 C 135.894531 80.894531 136.492188 81.214844 137.058594 81.59375 C 137.621094 81.976562 138.144531 82.410156 138.625 82.890625 C 139.105469 83.375 139.535156 83.902344 139.914062 84.46875 C 140.289062 85.035156 140.609375 85.632812 140.867188 86.265625 C 141.128906 86.894531 141.324219 87.542969 141.457031 88.210938 C 141.589844 88.882812 141.65625 89.554688 141.65625 90.238281 C 141.65625 90.917969 141.589844 91.59375 141.457031 92.261719 C 141.324219 92.929688 141.128906 93.582031 140.867188 94.210938 C 140.609375 94.839844 140.289062 95.441406 139.914062 96.007812 C 139.535156 96.574219 139.105469 97.101562 138.625 97.582031 C 138.144531 98.066406 137.621094 98.5 137.058594 98.878906 C 136.492188 99.261719 135.894531 99.582031 135.265625 99.847656 C 134.640625 100.109375 133.992188 100.308594 133.324219 100.445312 C 132.65625 100.582031 131.980469 100.652344 131.300781 100.65625 Z M 131.300781 100.65625 " fill-opacity="1" fill-rule="nonzero"/><path fill="#ffffff" d="M 46.328125 85.585938 L 98.433594 85.585938 L 98.433594 95.21875 L 46.328125 95.21875 Z M 46.328125 85.585938 " fill-opacity="1" fill-rule="nonzero"/><path fill="#ffffff" d="M 129.078125 90.402344 C 129.078125 90.71875 129.050781 91.03125 128.988281 91.339844 C 128.925781 91.652344 128.835938 91.953125 128.714844 92.246094 C 128.59375 92.539062 128.445312 92.816406 128.269531 93.078125 C 128.09375 93.339844 127.894531 93.585938 127.667969 93.808594 C 127.445312 94.03125 127.203125 94.230469 126.941406 94.40625 C 126.675781 94.582031 126.398438 94.730469 126.105469 94.851562 C 125.816406 94.972656 125.511719 95.0625 125.203125 95.125 C 124.894531 95.1875 124.582031 95.21875 124.265625 95.21875 C 123.949219 95.21875 123.632812 95.1875 123.324219 95.125 C 123.015625 95.0625 122.714844 94.972656 122.421875 94.851562 C 122.128906 94.730469 121.851562 94.582031 121.589844 94.40625 C 121.324219 94.230469 121.082031 94.03125 120.859375 93.808594 C 120.636719 93.582031 120.433594 93.339844 120.257812 93.078125 C 120.082031 92.816406 119.933594 92.539062 119.816406 92.246094 C 119.695312 91.953125 119.601562 91.652344 119.539062 91.339844 C 119.480469 91.03125 119.449219 90.71875 119.449219 90.402344 C 119.449219 90.085938 119.480469 89.773438 119.539062 89.460938 C 119.601562 89.152344 119.695312 88.851562 119.816406 88.558594 C 119.933594 88.265625 120.082031 87.988281 120.257812 87.726562 C 120.433594 87.464844 120.636719 87.21875 120.859375 86.996094 C 121.082031 86.773438 121.324219 86.574219 121.589844 86.398438 C 121.851562 86.222656 122.128906 86.074219 122.421875 85.953125 C 122.714844 85.832031 123.015625 85.742188 123.324219 85.679688 C 123.632812 85.617188 123.949219 85.585938 124.265625 85.585938 C 124.582031 85.585938 124.894531 85.617188 125.203125 85.679688 C 125.511719 85.742188 125.816406 85.832031 126.105469 85.953125 C 126.398438 86.074219 126.675781 86.222656 126.941406 86.398438 C 127.203125 86.574219 127.445312 86.773438 127.667969 86.996094 C 127.894531 87.21875 128.09375 87.464844 128.269531 87.726562 C 128.445312 87.988281 128.59375 88.265625 128.714844 88.558594 C 128.835938 88.851562 128.925781 89.152344 128.988281 89.460938 C 129.050781 89.773438 129.078125 90.085938 129.078125 90.402344 Z M 129.078125 90.402344 " fill-opacity="1" fill-rule="nonzero"/><path fill="#ffffff" d="M 131.300781 107.785156 L 48.546875 107.785156 C 47.609375 107.78125 46.683594 107.867188 45.765625 108.046875 C 44.84375 108.222656 43.953125 108.492188 43.085938 108.847656 C 42.21875 109.199219 41.394531 109.636719 40.613281 110.15625 C 39.835938 110.671875 39.113281 111.261719 38.449219 111.921875 C 37.785156 112.582031 37.191406 113.300781 36.671875 114.078125 C 36.148438 114.855469 35.707031 115.679688 35.347656 116.542969 C 34.988281 117.40625 34.71875 118.296875 34.535156 119.21875 C 34.351562 120.136719 34.257812 121.0625 34.257812 122 C 34.257812 122.9375 34.351562 123.863281 34.535156 124.78125 C 34.71875 125.699219 34.988281 126.589844 35.347656 127.457031 C 35.707031 128.320312 36.148438 129.140625 36.671875 129.917969 C 37.191406 130.695312 37.785156 131.414062 38.449219 132.074219 C 39.113281 132.738281 39.835938 133.324219 40.613281 133.84375 C 41.394531 134.359375 42.21875 134.796875 43.085938 135.152344 C 43.953125 135.507812 44.84375 135.773438 45.765625 135.953125 C 46.683594 136.132812 47.609375 136.21875 48.546875 136.214844 L 131.300781 136.214844 C 132.230469 136.207031 133.148438 136.113281 134.0625 135.925781 C 134.972656 135.742188 135.859375 135.46875 136.714844 135.109375 C 137.574219 134.75 138.390625 134.3125 139.160156 133.792969 C 139.933594 133.273438 140.648438 132.683594 141.304688 132.023438 C 141.957031 131.363281 142.542969 130.648438 143.058594 129.875 C 143.574219 129.097656 144.011719 128.28125 144.367188 127.421875 C 144.71875 126.5625 144.988281 125.675781 145.167969 124.761719 C 145.351562 123.851562 145.441406 122.929688 145.441406 122 C 145.441406 121.070312 145.351562 120.148438 145.167969 119.234375 C 144.988281 118.324219 144.71875 117.4375 144.367188 116.578125 C 144.011719 115.714844 143.574219 114.898438 143.058594 114.125 C 142.542969 113.351562 141.957031 112.632812 141.304688 111.972656 C 140.648438 111.316406 139.933594 110.726562 139.160156 110.207031 C 138.390625 109.6875 137.574219 109.246094 136.714844 108.886719 C 135.859375 108.527344 134.972656 108.257812 134.0625 108.070312 C 133.148438 107.886719 132.230469 107.789062 131.300781 107.785156 Z M 131.300781 132.417969 L 48.546875 132.417969 C 47.859375 132.421875 47.179688 132.359375 46.507812 132.230469 C 45.832031 132.097656 45.175781 131.902344 44.542969 131.644531 C 43.90625 131.382812 43.300781 131.0625 42.730469 130.683594 C 42.15625 130.304688 41.625 129.875 41.140625 129.390625 C 40.652344 128.90625 40.21875 128.378906 39.835938 127.808594 C 39.453125 127.238281 39.128906 126.636719 38.863281 126 C 38.601562 125.367188 38.402344 124.714844 38.265625 124.039062 C 38.132812 123.367188 38.066406 122.6875 38.066406 122 C 38.066406 121.3125 38.132812 120.632812 38.265625 119.957031 C 38.402344 119.285156 38.601562 118.632812 38.863281 117.996094 C 39.128906 117.363281 39.453125 116.761719 39.835938 116.191406 C 40.21875 115.621094 40.652344 115.09375 41.140625 114.609375 C 41.625 114.125 42.15625 113.691406 42.730469 113.3125 C 43.300781 112.933594 43.90625 112.613281 44.542969 112.355469 C 45.175781 112.09375 45.832031 111.898438 46.507812 111.769531 C 47.179688 111.636719 47.859375 111.574219 48.546875 111.578125 L 131.300781 111.578125 C 131.980469 111.582031 132.65625 111.652344 133.324219 111.789062 C 133.992188 111.925781 134.640625 112.125 135.269531 112.390625 C 135.894531 112.652344 136.492188 112.976562 137.058594 113.355469 C 137.625 113.738281 138.148438 114.167969 138.628906 114.652344 C 139.109375 115.136719 139.535156 115.660156 139.914062 116.230469 C 140.292969 116.796875 140.609375 117.394531 140.871094 118.027344 C 141.128906 118.65625 141.324219 119.304688 141.457031 119.972656 C 141.589844 120.640625 141.65625 121.316406 141.65625 122 C 141.65625 122.679688 141.589844 123.355469 141.457031 124.023438 C 141.324219 124.691406 141.128906 125.34375 140.871094 125.972656 C 140.609375 126.601562 140.292969 127.203125 139.914062 127.769531 C 139.535156 128.335938 139.109375 128.863281 138.628906 129.34375 C 138.148438 129.828125 137.625 130.261719 137.058594 130.640625 C 136.492188 131.023438 135.894531 131.34375 135.269531 131.609375 C 134.640625 131.871094 133.992188 132.070312 133.324219 132.207031 C 132.65625 132.34375 131.980469 132.414062 131.300781 132.417969 Z M 131.300781 132.417969 " fill-opacity="1" fill-rule="nonzero"/><path fill="#ffffff" d="M 46.328125 117.347656 L 98.433594 117.347656 L 98.433594 126.980469 L 46.328125 126.980469 Z M 46.328125 117.347656 " fill-opacity="1" fill-rule="nonzero"/><path fill="#ffffff" d="M 129.078125 122.164062 C 129.078125 122.480469 129.050781 122.792969 128.988281 123.101562 C 128.925781 123.414062 128.835938 123.714844 128.714844 124.007812 C 128.59375 124.296875 128.445312 124.574219 128.269531 124.839844 C 128.09375 125.101562 127.894531 125.34375 127.667969 125.570312 C 127.445312 125.792969 127.203125 125.992188 126.941406 126.167969 C 126.675781 126.34375 126.398438 126.492188 126.105469 126.613281 C 125.816406 126.734375 125.511719 126.824219 125.203125 126.886719 C 124.894531 126.949219 124.582031 126.980469 124.265625 126.980469 C 123.949219 126.980469 123.632812 126.949219 123.324219 126.886719 C 123.015625 126.824219 122.714844 126.734375 122.421875 126.613281 C 122.128906 126.492188 121.851562 126.34375 121.589844 126.167969 C 121.324219 125.992188 121.082031 125.792969 120.859375 125.570312 C 120.636719 125.34375 120.433594 125.101562 120.257812 124.839844 C 120.082031 124.574219 119.933594 124.296875 119.816406 124.007812 C 119.695312 123.714844 119.601562 123.414062 119.539062 123.101562 C 119.480469 122.792969 119.449219 122.480469 119.449219 122.164062 C 119.449219 121.847656 119.480469 121.535156 119.539062 121.222656 C 119.601562 120.914062 119.695312 120.613281 119.816406 120.320312 C 119.933594 120.027344 120.082031 119.75 120.257812 119.488281 C 120.433594 119.226562 120.636719 118.980469 120.859375 118.757812 C 121.082031 118.535156 121.324219 118.335938 121.589844 118.160156 C 121.851562 117.984375 122.128906 117.835938 122.421875 117.714844 C 122.714844 117.59375 123.015625 117.5 123.324219 117.441406 C 123.632812 117.378906 123.949219 117.347656 124.265625 117.347656 C 124.582031 117.347656 124.894531 117.378906 125.203125 117.441406 C 125.511719 117.5 125.816406 117.59375 126.105469 117.714844 C 126.398438 117.835938 126.675781 117.984375 126.941406 118.160156 C 127.203125 118.335938 127.445312 118.535156 127.667969 118.757812 C 127.894531 118.980469 128.09375 119.226562 128.269531 119.488281 C 128.445312 119.75 128.59375 120.027344 128.714844 120.320312 C 128.835938 120.613281 128.925781 120.914062 128.988281 121.222656 C 129.050781 121.535156 129.078125 121.847656 129.078125 122.164062 Z M 129.078125 122.164062 " fill-opacity="1" fill-rule="nonzero"/><path fill="#ffffff" d="M 131.300781 139.546875 L 48.546875 139.546875 C 47.609375 139.542969 46.683594 139.628906 45.765625 139.808594 C 44.84375 139.984375 43.953125 140.253906 43.085938 140.609375 C 42.21875 140.960938 41.394531 141.398438 40.617188 141.917969 C 39.835938 142.433594 39.113281 143.023438 38.449219 143.683594 C 37.785156 144.34375 37.191406 145.0625 36.671875 145.839844 C 36.148438 146.617188 35.707031 147.441406 35.347656 148.304688 C 34.988281 149.167969 34.71875 150.058594 34.535156 150.980469 C 34.351562 151.898438 34.261719 152.824219 34.261719 153.761719 C 34.261719 154.695312 34.351562 155.625 34.535156 156.542969 C 34.71875 157.460938 34.988281 158.351562 35.347656 159.21875 C 35.707031 160.082031 36.148438 160.902344 36.671875 161.679688 C 37.191406 162.457031 37.785156 163.175781 38.449219 163.835938 C 39.113281 164.496094 39.835938 165.085938 40.617188 165.605469 C 41.394531 166.121094 42.21875 166.558594 43.085938 166.914062 C 43.953125 167.269531 44.84375 167.535156 45.765625 167.714844 C 46.683594 167.890625 47.609375 167.980469 48.546875 167.972656 L 87.140625 167.972656 L 87.140625 177.261719 L 62.765625 177.261719 L 62.765625 181.054688 L 113.875 181.054688 L 113.875 177.261719 L 90.9375 177.261719 L 90.9375 167.976562 L 131.300781 167.976562 C 132.230469 167.972656 133.148438 167.875 134.0625 167.691406 C 134.972656 167.503906 135.859375 167.230469 136.714844 166.871094 C 137.574219 166.515625 138.390625 166.074219 139.160156 165.554688 C 139.933594 165.035156 140.644531 164.445312 141.300781 163.785156 C 141.957031 163.128906 142.542969 162.410156 143.058594 161.636719 C 143.574219 160.863281 144.011719 160.042969 144.363281 159.183594 C 144.71875 158.324219 144.988281 157.4375 145.167969 156.527344 C 145.347656 155.613281 145.441406 154.691406 145.441406 153.761719 C 145.441406 152.832031 145.347656 151.910156 145.167969 151 C 144.988281 150.085938 144.71875 149.199219 144.363281 148.339844 C 144.011719 147.480469 143.574219 146.664062 143.058594 145.886719 C 142.542969 145.113281 141.957031 144.398438 141.300781 143.738281 C 140.644531 143.078125 139.933594 142.488281 139.160156 141.96875 C 138.390625 141.449219 137.574219 141.011719 136.714844 140.652344 C 135.859375 140.292969 134.972656 140.019531 134.0625 139.832031 C 133.148438 139.648438 132.230469 139.554688 131.300781 139.546875 Z M 131.300781 164.179688 L 48.546875 164.179688 C 47.859375 164.183594 47.179688 164.121094 46.507812 163.992188 C 45.832031 163.859375 45.175781 163.664062 44.539062 163.40625 C 43.90625 163.144531 43.300781 162.824219 42.726562 162.445312 C 42.15625 162.066406 41.625 161.636719 41.140625 161.152344 C 40.652344 160.667969 40.21875 160.140625 39.835938 159.570312 C 39.449219 159 39.128906 158.398438 38.863281 157.761719 C 38.601562 157.128906 38.402344 156.476562 38.265625 155.800781 C 38.132812 155.128906 38.066406 154.449219 38.066406 153.761719 C 38.066406 153.074219 38.132812 152.394531 38.265625 151.71875 C 38.402344 151.046875 38.601562 150.394531 38.863281 149.757812 C 39.128906 149.125 39.449219 148.523438 39.835938 147.953125 C 40.21875 147.382812 40.652344 146.855469 41.140625 146.371094 C 41.625 145.886719 42.15625 145.453125 42.726562 145.074219 C 43.300781 144.695312 43.90625 144.375 44.539062 144.117188 C 45.175781 143.855469 45.832031 143.660156 46.507812 143.53125 C 47.179688 143.398438 47.859375 143.335938 48.546875 143.339844 L 131.300781 143.339844 C 131.980469 143.34375 132.65625 143.414062 133.324219 143.550781 C 133.992188 143.6875 134.640625 143.886719 135.265625 144.152344 C 135.894531 144.414062 136.492188 144.738281 137.058594 145.117188 C 137.625 145.5 138.144531 145.929688 138.625 146.414062 C 139.105469 146.898438 139.535156 147.421875 139.914062 147.992188 C 140.289062 148.558594 140.609375 149.15625 140.871094 149.789062 C 141.128906 150.417969 141.324219 151.066406 141.457031 151.734375 C 141.589844 152.402344 141.65625 153.078125 141.65625 153.761719 C 141.65625 154.441406 141.589844 155.117188 141.457031 155.785156 C 141.324219 156.453125 141.128906 157.105469 140.871094 157.734375 C 140.609375 158.363281 140.289062 158.960938 139.914062 159.53125 C 139.535156 160.097656 139.105469 160.625 138.625 161.105469 C 138.144531 161.589844 137.625 162.023438 137.058594 162.402344 C 136.492188 162.785156 135.894531 163.105469 135.265625 163.371094 C 134.640625 163.632812 133.992188 163.832031 133.324219 163.96875 C 132.65625 164.105469 131.980469 164.175781 131.300781 164.179688 Z M 131.300781 164.179688 " fill-opacity="1" fill-rule="nonzero"/><path fill="#ffffff" d="M 46.328125 149.109375 L 98.433594 149.109375 L 98.433594 158.742188 L 46.328125 158.742188 Z M 46.328125 149.109375 " fill-opacity="1" fill-rule="nonzero"/><path fill="#ffffff" d="M 129.078125 153.925781 C 129.078125 154.242188 129.050781 154.554688 128.988281 154.863281 C 128.925781 155.175781 128.835938 155.476562 128.714844 155.769531 C 128.59375 156.058594 128.445312 156.335938 128.269531 156.601562 C 128.09375 156.863281 127.894531 157.105469 127.667969 157.332031 C 127.445312 157.554688 127.203125 157.753906 126.941406 157.929688 C 126.675781 158.105469 126.398438 158.253906 126.105469 158.375 C 125.816406 158.496094 125.511719 158.585938 125.203125 158.648438 C 124.894531 158.710938 124.582031 158.742188 124.265625 158.742188 C 123.949219 158.742188 123.632812 158.710938 123.324219 158.648438 C 123.015625 158.585938 122.714844 158.496094 122.421875 158.375 C 122.128906 158.253906 121.851562 158.105469 121.589844 157.929688 C 121.324219 157.753906 121.082031 157.554688 120.859375 157.332031 C 120.636719 157.105469 120.433594 156.863281 120.257812 156.601562 C 120.082031 156.335938 119.933594 156.058594 119.816406 155.769531 C 119.695312 155.476562 119.601562 155.175781 119.539062 154.863281 C 119.480469 154.554688 119.449219 154.242188 119.449219 153.925781 C 119.449219 153.609375 119.480469 153.296875 119.539062 152.984375 C 119.601562 152.675781 119.695312 152.375 119.816406 152.082031 C 119.933594 151.789062 120.082031 151.511719 120.257812 151.25 C 120.433594 150.984375 120.636719 150.742188 120.859375 150.519531 C 121.082031 150.296875 121.324219 150.097656 121.589844 149.921875 C 121.851562 149.746094 122.128906 149.597656 122.421875 149.476562 C 122.714844 149.355469 123.015625 149.261719 123.324219 149.203125 C 123.632812 149.140625 123.949219 149.109375 124.265625 149.109375 C 124.582031 149.109375 124.894531 149.140625 125.203125 149.199219 C 125.511719 149.261719 125.816406 149.355469 126.105469 149.476562 C 126.398438 149.597656 126.675781 149.746094 126.941406 149.921875 C 127.203125 150.097656 127.445312 150.296875 127.667969 150.519531 C 127.894531 150.742188 128.09375 150.984375 128.269531 151.25 C 128.445312 151.511719 128.59375 151.789062 128.714844 152.082031 C 128.835938 152.375 128.925781 152.675781 128.988281 152.984375 C 129.050781 153.296875 129.078125 153.609375 129.078125 153.925781 Z M 129.078125 153.925781 " fill-opacity="1" fill-rule="nonzero"/><path fill="#ffffff" d="M 119.273438 177.261719 L 124.125 177.261719 L 124.125 181.054688 L 119.273438 181.054688 Z M 119.273438 177.261719 " fill-opacity="1" fill-rule="nonzero"/><path fill="#ffffff" d="M 129.078125 177.261719 L 133.929688 177.261719 L 133.929688 181.054688 L 129.078125 181.054688 Z M 129.078125 177.261719 " fill-opacity="1" fill-rule="nonzero"/><path fill="#ffffff" d="M 42.203125 178.183594 L 47.054688 178.183594 L 47.054688 181.980469 L 42.203125 181.980469 Z M 42.203125 178.183594 " fill-opacity="1" fill-rule="nonzero"/><path fill="#ffffff" d="M 52.011719 178.183594 L 56.859375 178.183594 L 56.859375 181.980469 L 52.011719 181.980469 Z M 52.011719 178.183594 " fill-opacity="1" fill-rule="nonzero"/><g clip-path="url(#a5213f6c98)"><path fill="#ff3131" d="M 23.203125 96.859375 L 24.570312 96.039062 L 25.117188 96.585938 C 25.480469 96.949219 26.390625 99.863281 27.84375 105.324219 C 29.300781 110.78125 31.394531 115.96875 34.125 120.882812 C 36.855469 125.796875 38.582031 128.253906 39.3125 128.253906 L 40.402344 128.253906 L 42.585938 125.523438 C 44.042969 123.703125 45.40625 121.976562 46.683594 120.335938 C 47.957031 118.699219 49.140625 117.152344 50.230469 115.695312 C 51.324219 114.242188 52.140625 113.238281 52.6875 112.695312 L 53.507812 111.875 L 56.238281 111.328125 C 58.054688 110.964844 61.515625 111.238281 66.609375 112.148438 L 74.253906 113.511719 L 73.433594 116.789062 C 72.890625 118.972656 71.707031 121.15625 69.886719 123.339844 C 68.066406 125.523438 66.609375 127.34375 65.519531 128.800781 C 64.425781 130.257812 62.789062 132.257812 60.605469 134.804688 C 58.421875 137.355469 56.78125 139.355469 55.691406 140.8125 C 54.597656 142.269531 54.050781 143.542969 54.050781 144.632812 L 54.050781 146.273438 L 57.601562 149.273438 C 59.96875 151.277344 63.515625 153.371094 68.25 155.554688 C 72.980469 157.738281 79.714844 159.921875 88.449219 162.105469 L 101.554688 165.382812 L 95.546875 168.65625 C 91.542969 170.839844 88.449219 172.296875 86.265625 173.023438 C 84.082031 173.753906 80.988281 173.933594 76.984375 173.570312 C 72.980469 173.207031 68.25 172.296875 62.789062 170.839844 C 57.328125 169.386719 53.507812 168.109375 51.324219 167.019531 C 49.140625 165.925781 46.953125 164.652344 44.769531 163.195312 C 42.585938 161.742188 40.949219 161.011719 39.855469 161.011719 L 38.21875 161.011719 L 31.667969 167.019531 C 27.300781 171.023438 24.023438 173.753906 21.839844 175.207031 C 19.65625 176.664062 17.652344 178.121094 15.832031 179.578125 C 14.011719 181.03125 11.464844 182.488281 8.191406 183.945312 C 4.914062 185.402344 2.730469 186.128906 1.636719 186.128906 L 0 186.128906 L 0.820312 184.761719 C 1.363281 183.855469 2.367188 182.304688 3.820312 180.121094 C 5.277344 177.9375 6.734375 175.9375 8.191406 174.117188 C 9.644531 172.296875 11.285156 169.929688 13.105469 167.019531 C 14.921875 164.105469 16.742188 161.558594 18.5625 159.375 C 20.382812 157.191406 22.019531 155.007812 23.476562 152.824219 L 25.660156 149.546875 L 25.117188 147.363281 C 24.75 145.90625 24.023438 144.453125 22.929688 142.996094 C 21.839844 141.539062 19.835938 138.082031 16.925781 132.621094 C 14.011719 127.160156 11.828125 122.613281 10.375 118.972656 C 8.917969 115.332031 8.191406 112.964844 8.191406 111.875 L 8.191406 110.238281 L 15.015625 103.957031 C 19.566406 99.773438 22.292969 97.40625 23.203125 96.859375 Z M 23.203125 96.859375 " fill-opacity="1" fill-rule="evenodd"/></g></svg>